<svg width="93" height="28" viewBox="0 0 93 28" fill="none" xmlns="http://www.w3.org/2000/svg">
<g opacity="0.25" clip-path="url(#clip0_35_425)">
<path fill-rule="evenodd" clip-rule="evenodd" d="M57.6955 21.8968C52.2911 25.8766 44.4578 27.9999 37.7134 27.9999C28.2568 27.9999 19.7433 24.5055 13.3026 18.6936C12.7966 18.2366 13.25 17.6137 13.8572 17.9696C20.808 22.0101 29.4024 24.4408 38.2802 24.4408C44.2675 24.4408 50.854 23.2032 56.9101 20.6349C57.8251 20.2467 58.5902 21.2335 57.6955 21.8968Z" fill="#474654"/>
<path fill-rule="evenodd" clip-rule="evenodd" d="M59.942 19.3285C59.2538 18.4468 55.3756 18.9119 53.6349 19.1182C53.1045 19.1829 53.0236 18.7218 53.5013 18.3902C56.5901 16.2183 61.6584 16.8452 62.2495 17.5732C62.8405 18.3053 62.0956 23.3811 59.1931 25.8037C58.7478 26.1758 58.3227 25.9777 58.5211 25.4842C59.1728 23.8583 60.6342 20.2143 59.942 19.3285Z" fill="#474654"/>
<path fill-rule="evenodd" clip-rule="evenodd" d="M53.7564 3.05769V0.94647C53.7564 0.626955 53.9993 0.412598 54.2908 0.412598H63.7515C64.0551 0.412598 64.298 0.631 64.298 0.94647V2.75436C64.294 3.05769 64.0389 3.45405 63.5855 4.08095L58.6831 11.0739C60.5048 11.0294 62.4277 11.3004 64.0794 12.2306C64.4519 12.4409 64.5531 12.7483 64.5814 13.0516V15.3044C64.5814 15.6118 64.2414 15.9717 63.8851 15.7857C60.9744 14.2609 57.1084 14.0951 53.89 15.8019C53.5621 15.9798 53.218 15.6239 53.218 15.3165V13.177C53.218 12.8332 53.2221 12.2468 53.5662 11.725L59.2458 3.58752H54.3029C53.9993 3.58752 53.7564 3.37316 53.7564 3.05769Z" fill="#474654"/>
<path fill-rule="evenodd" clip-rule="evenodd" d="M19.2454 16.2306H16.3672C16.0919 16.2103 15.8733 16.0041 15.853 15.7412V0.982857C15.853 0.68761 16.1 0.453028 16.4076 0.453028H19.0916C19.3709 0.465153 19.5936 0.679518 19.6138 0.946454V2.87568H19.6665C20.3668 1.01117 21.6825 0.141602 23.4556 0.141602C25.2571 0.141602 26.3825 1.01117 27.1921 2.87568C27.8884 1.01117 29.4713 0.141602 31.1675 0.141602C32.3739 0.141602 33.6936 0.639073 34.4992 1.75535C35.41 2.99701 35.2238 4.80085 35.2238 6.38224L35.2198 15.6967C35.2198 15.9919 34.9728 16.2306 34.6652 16.2306H31.7909C31.5035 16.2103 31.2727 15.9798 31.2727 15.6967V7.87466C31.2727 7.25181 31.3294 5.69873 31.1918 5.10823C30.9772 4.11733 30.3336 3.83826 29.4996 3.83826C28.8033 3.83826 28.0746 4.30338 27.7791 5.04756C27.4836 5.79175 27.5119 7.03745 27.5119 7.87466V15.6967C27.5119 15.9919 27.265 16.2306 26.9573 16.2306H24.0831C23.7916 16.2103 23.5649 15.9798 23.5649 15.6967L23.5609 7.87466C23.5609 6.22855 23.8321 3.80591 21.7877 3.80591C19.7191 3.80591 19.8001 6.16788 19.8001 7.87466V15.6967C19.8001 15.9919 19.5531 16.2306 19.2454 16.2306" fill="#474654"/>
<path fill-rule="evenodd" clip-rule="evenodd" d="M72.443 0.141602C76.7139 0.141602 79.0254 3.80591 79.0254 8.46515C79.0254 12.9667 76.471 16.5379 72.443 16.5379C68.249 16.5379 65.9658 12.8736 65.9658 8.30742C65.9658 3.71288 68.2774 0.141602 72.443 0.141602ZM72.4673 3.15475C70.346 3.15475 70.2124 6.0425 70.2124 7.8423C70.2124 9.64614 70.1841 13.4965 72.443 13.4965C74.6736 13.4965 74.7788 10.3903 74.7788 8.49751C74.7788 7.25181 74.7262 5.76344 74.3497 4.58245C74.0258 3.55515 73.3822 3.15475 72.4673 3.15475Z" fill="#474654"/>
<path fill-rule="evenodd" clip-rule="evenodd" d="M84.5634 16.2306H81.6973C81.4098 16.2103 81.1791 15.9798 81.1791 15.6967L81.175 0.934321C81.1993 0.66334 81.4382 0.453028 81.7297 0.453028H84.3974C84.6484 0.465153 84.8549 0.63503 84.9116 0.865566V3.12239H84.9642C85.7698 1.10419 86.8992 0.141602 88.8869 0.141602C90.1783 0.141602 91.4373 0.606718 92.2469 1.88073C92.9999 3.06172 92.9999 5.04756 92.9999 6.47526V15.7655C92.9675 16.0243 92.7287 16.2306 92.4453 16.2306H89.5589C89.2958 16.2103 89.0772 16.0162 89.0488 15.7655V7.74928C89.0488 6.13553 89.2351 3.77355 87.2474 3.77355C86.547 3.77355 85.9034 4.24271 85.5836 4.95454C85.1787 5.85646 85.1261 6.75434 85.1261 7.74928V15.6967C85.1221 15.9919 84.8711 16.2306 84.5634 16.2306" fill="#474654"/>
<path fill-rule="evenodd" clip-rule="evenodd" d="M46.2147 9.18099C46.2147 10.3013 46.243 11.2356 45.6763 12.2305C45.2188 13.0394 44.4901 13.5369 43.6846 13.5369C42.5794 13.5369 41.9317 12.6956 41.9317 11.454C41.9317 9.00303 44.1299 8.55814 46.2147 8.55814V9.18099ZM49.1173 16.1901C48.927 16.3599 48.6517 16.3721 48.4372 16.2588C47.4818 15.4661 47.3077 15.0981 46.7855 14.3418C45.2067 15.9515 44.0853 16.4327 42.041 16.4327C39.6161 16.4327 37.7336 14.9403 37.7336 11.9515C37.7336 9.61779 38.9967 8.02831 40.8022 7.25177C42.3648 6.5642 44.5468 6.44287 46.2147 6.25278V5.88068C46.2147 5.19716 46.2673 4.38827 45.8625 3.79778C45.5144 3.26795 44.8423 3.04954 44.2473 3.04954C43.1502 3.04954 42.1746 3.61173 41.9357 4.77654C41.8871 5.03539 41.6969 5.29019 41.4337 5.30232L38.6445 5.00303C38.4097 4.95045 38.1466 4.76036 38.2154 4.4004C38.855 1.01921 41.9155 0 44.6521 0C46.0528 0 47.8826 0.372093 48.9877 1.43175C50.3884 2.73812 50.2548 4.48129 50.2548 6.37816V10.8594C50.2548 12.2063 50.8135 12.7968 51.3398 13.5248C51.5219 13.7836 51.5624 14.095 51.3276 14.2892C50.7406 14.7786 49.6962 15.6886 49.1213 16.1982L49.1173 16.1901" fill="#474654"/>
<path fill-rule="evenodd" clip-rule="evenodd" d="M8.48104 9.18099C8.48104 10.3013 8.50938 11.2356 7.94263 12.2305C7.48518 13.0394 6.76054 13.5369 5.9509 13.5369C4.84573 13.5369 4.20206 12.6956 4.20206 11.454C4.20206 9.00303 6.40025 8.55814 8.48104 8.55814V9.18099ZM11.3836 16.1901C11.1934 16.36 10.9181 16.3721 10.7035 16.2588C9.74814 15.4661 9.57811 15.0981 9.05184 14.3418C7.47303 15.9515 6.35572 16.4328 4.30732 16.4328C1.88647 16.4328 0 14.9403 0 11.9515C0 9.61779 1.2671 8.02831 3.06856 7.25177C4.63117 6.5642 6.81317 6.44287 8.48104 6.25278V5.88069C8.48104 5.19717 8.53367 4.38827 8.1329 3.79778C7.7807 3.26795 7.10869 3.04954 6.51765 3.04954C5.42058 3.04954 4.44091 3.61173 4.20206 4.77654C4.15348 5.03539 3.96322 5.29019 3.70413 5.30232L0.910852 5.00303C0.676054 4.95045 0.416967 4.76036 0.481739 4.4004C1.12541 1.01921 4.18182 0 6.91843 0C8.31911 0 10.1489 0.372094 11.2541 1.43175C12.6548 2.73812 12.5212 4.48129 12.5212 6.37816V10.8594C12.5212 12.2063 13.0798 12.7968 13.6061 13.5248C13.7923 13.7836 13.8328 14.095 13.598 14.2892C13.011 14.7786 11.9666 15.6886 11.3917 16.1982L11.3836 16.1901" fill="#474654"/>
</g>
<defs>
<clipPath id="clip0_35_425">
<rect width="93" height="28" fill="white"/>
</clipPath>
</defs>
</svg>
