<svg width="143" height="95" viewBox="0 0 143 95" fill="none" xmlns="http://www.w3.org/2000/svg">
<g opacity="0.25">
<path d="M23.9685 57.7806H19.8236V47.484H17V44.1316H19.8235V41.7462C19.8235 38.9194 21.0723 36.8921 25.206 36.8921C26.0803 36.8921 27.4529 37.0677 27.4529 37.0677V40.1806H26.0112C24.5423 40.1806 23.9687 40.6258 23.9687 41.8568V44.1316H27.3979L27.0925 47.484H23.9686L23.9685 57.7806ZM33.4791 43.8637C33.4187 43.8637 33.3566 43.8659 33.2951 43.8675C29.4517 43.8675 27.6932 46.7484 27.6932 50.8379C27.6932 55.9896 29.9742 58.0515 33.3251 58.0515C35.2423 58.0515 36.5019 57.2473 37.2675 55.7467V57.782H41.2099V44.1331H37.2675V46.2321C36.6424 44.8816 35.3476 43.8797 33.4791 43.8637ZM34.4815 47.089C36.0958 47.089 37.0647 48.211 37.0647 50.1195L37.0684 52.0688C37.0684 53.3551 36.2682 54.86 34.4815 54.86C31.7348 54.86 31.8082 51.9046 31.8082 50.9202C31.8082 47.6091 33.2716 47.089 34.4815 47.089ZM42.802 50.9583C42.802 49.2997 42.7224 43.8726 49.8178 43.8726C52.6661 43.8726 53.8554 44.7751 53.8554 44.7751L52.8995 47.7295C52.8995 47.7295 51.7117 47.0778 50.164 47.0778C48.1817 47.0778 46.9168 48.2229 46.9168 50.2378L46.919 51.6825C46.919 53.6185 48.1395 54.9109 50.1681 54.9109C51.5781 54.9109 52.8776 54.253 52.8776 54.253L53.8311 57.1457C53.8311 57.1457 52.7436 58.0539 49.8377 58.0539C43.0818 58.0539 42.8022 53.1848 42.8022 50.9583H42.802ZM76.9711 43.8675C80.8146 43.8675 82.6008 46.7484 82.6008 50.8379C82.6008 55.9896 80.3197 58.0515 76.9688 58.0515C75.0516 58.0515 73.6344 57.2474 72.8688 55.7467V57.782L68.976 57.7805V37.3071L73.1091 36.9479V46.0472C73.7057 44.4552 75.6661 43.8675 76.9712 43.8675H76.9711ZM75.8124 47.089C74.1981 47.089 73.1091 48.211 73.1091 50.1195L73.1053 52.0688C73.1029 53.3551 73.8594 54.86 75.8124 54.86C78.5591 54.86 78.4857 51.9046 78.4857 50.9202C78.4857 47.6091 77.0224 47.089 75.8124 47.089ZM61.0267 43.8788C56.6674 43.8788 54.366 46.2472 54.366 50.4562V51.2382C54.366 56.7011 57.5979 58.1076 61.451 58.1076C65.1962 58.1076 66.8914 57.0637 66.8914 57.0637L66.118 54.2839C66.118 54.2839 64.1239 55.1294 61.9466 55.1294C59.6894 55.1294 58.7186 54.5561 58.4698 52.3944H67.2218V50.1643C67.2218 45.5986 64.6389 43.8786 61.0266 43.8786L61.0267 43.8788ZM61.1318 46.6623C62.6408 46.6623 63.6185 47.5844 63.5649 49.7229H58.4774C58.5656 47.4722 59.62 46.6624 61.1318 46.6624V46.6623ZM90.8421 43.86C86.3654 43.86 84.0087 46.3739 84.0087 50.879C84.0087 57.0602 88.0712 58.0552 90.8496 58.0552C94.917 58.0552 97.623 55.8731 97.623 50.9351C97.623 45.7956 94.5804 43.86 90.8421 43.86ZM90.7858 47.1001C92.7542 47.1001 93.5343 48.5682 93.5343 50.2393V51.676C93.5343 53.7004 92.4428 54.8713 90.7783 54.8713C89.2216 54.8713 88.1275 53.776 88.1275 51.676V50.2393C88.1275 47.9996 89.4294 47.1001 90.7858 47.1001ZM105.857 43.86C101.38 43.86 99.0235 46.3739 99.0235 50.879C99.0235 57.0602 103.086 58.0552 105.864 58.0552C109.932 58.0552 112.638 55.8731 112.638 50.9351C112.638 45.7956 109.595 43.86 105.857 43.86ZM105.801 47.1001C107.769 47.1001 108.549 48.5682 108.549 50.2393V51.676C108.549 53.7004 107.458 54.8713 105.793 54.8713C104.236 54.8713 103.142 53.776 103.142 51.676V50.2393C103.142 47.9996 104.444 47.1001 105.801 47.1001ZM114.2 57.7806V37.3071L118.345 36.948V50.6706L122.457 44.1317H126.835L122.545 50.9041L127 57.7806H122.61L118.345 51.1035V57.7806H114.2Z" fill="#474654"/>
</g>
</svg>
