<svg width="72" height="72" viewBox="0 0 72 72" fill="none" xmlns="http://www.w3.org/2000/svg">
<path d="M8.97879 19.9718H30.3501L34.8047 24.4264C35.1118 24.7334 35.5192 24.8959 35.9349 24.8959C36.1414 24.8959 36.3498 24.8558 36.549 24.7733C37.1493 24.5247 37.537 23.9442 37.537 23.2946V19.7468C39.1864 19.1788 40.3378 17.602 40.3378 15.8231V4.14871C40.3378 1.86103 38.4768 0 36.1891 0H8.97879C6.69111 0 4.83008 1.86103 4.83008 4.14871V5.00118C4.83008 5.58379 5.30216 6.05586 5.88476 6.05586C6.46737 6.05586 6.93945 5.58379 6.93945 5.00118V4.14871C6.93945 3.02428 7.85435 2.10937 8.97879 2.10937H36.1891C37.3135 2.10937 38.2285 3.02428 38.2285 4.14871V15.8231C38.2285 16.7815 37.5492 17.6204 36.6135 17.818C35.9263 17.9628 35.4276 18.5814 35.4276 19.2888V22.0663L31.6654 18.3041C31.3812 18.0194 31.0027 17.8624 30.6003 17.8624H8.97879C7.85435 17.8624 6.93945 16.9475 6.93945 15.8231V9.94062C6.93945 9.35801 6.46737 8.88594 5.88476 8.88594C5.30216 8.88594 4.83008 9.35801 4.83008 9.94062V15.8231C4.83008 18.1106 6.69111 19.9718 8.97879 19.9718Z" fill="#474654"/>
<path d="M70.9452 48.6462C71.5278 48.6462 71.9999 48.1741 71.9999 47.5915V46.7795C71.9999 43.5403 69.829 40.6407 66.7209 39.7281L61.0026 38.0491C60.8378 37.8981 60.6478 37.7725 60.4378 37.679L59.2453 37.1477C58.9277 37.0063 58.5912 36.9345 58.2559 36.9303V34.4207C60.1252 33.0409 61.4305 30.9304 61.7336 28.5C62.6787 28.233 63.3731 27.3628 63.3731 26.3335V18.7859C63.3731 17.0183 61.9874 15.5682 60.245 15.4649C60.1017 13.7616 58.6696 12.4194 56.9298 12.4194H49.0994C45.6341 12.4194 42.8152 15.2385 42.8152 18.7037V26.3335C42.8152 27.3629 43.5096 28.2331 44.4547 28.5002C44.7582 30.9303 46.0633 33.0406 47.9324 34.4205V36.9261C47.6001 36.9324 47.2671 37.0049 46.9538 37.1455L45.7842 37.6706C45.5761 37.7641 45.3875 37.8892 45.2238 38.0397L39.4708 39.7282C36.3625 40.6404 34.1914 43.5403 34.1914 46.78V52.5075C33.458 51.9081 32.6044 51.4533 31.6721 51.1797C31.5794 51.1525 32.1198 51.2617 23.4606 49.6112V49.5884C24.8287 49.3365 26.1802 48.9812 27.5016 48.5224C30.4298 47.5059 32.3357 44.4937 30.8435 39.5163C30.3501 37.8704 30.0997 36.1648 30.0992 34.4424C30.0972 28.0007 24.855 22.7601 18.4133 22.7601H18.4131C11.9715 22.7601 6.72932 28.0008 6.72721 34.4469C6.72664 36.165 6.47633 37.8707 5.98302 39.5163C4.50632 44.4433 6.35314 47.4907 9.32483 48.5224C10.6452 48.9809 11.9956 49.336 13.3626 49.5878C4.7406 51.2569 5.2453 51.1534 5.15488 51.18C2.11978 52.0705 0 54.9019 0 58.0652V68.0227C0 70.2246 1.78326 71.9971 3.97434 71.9971H3.98249C4.00063 71.9971 68.0075 71.9327 68.0257 71.9327C70.2172 71.9327 72 70.1498 72 67.9583V52.5221C72 51.9395 71.5279 51.4674 70.9453 51.4674C70.3627 51.4674 69.8906 51.9395 69.8906 52.5221V54.9617H57.5625L55.6965 46.6417L56.7061 44.8325C57.1067 44.755 57.4903 44.5633 57.8074 44.2587L61.0486 41.1025C61.2564 40.9002 61.4166 40.6608 61.5243 40.4008L66.127 41.7521C68.3428 42.4026 69.8905 44.4701 69.8905 46.7795V47.5915C69.8905 48.1741 70.3626 48.6462 70.9452 48.6462ZM44.9245 18.7035C44.9245 16.4015 46.7974 14.5287 49.0994 14.5287H56.9298C57.6012 14.5287 58.1475 15.0749 58.1475 15.7462C58.1475 16.751 58.9648 17.5683 59.9696 17.5683H60.0461C60.7174 17.5683 61.2637 18.1145 61.2637 18.7858V22.6931H60.7482C60.4579 22.6931 60.2218 22.4569 60.2218 22.1667V21.3014C60.2218 19.4379 58.392 18.1374 56.6434 18.7152C54.3554 19.4713 51.8355 19.4715 49.5446 18.7148C47.7803 18.1316 45.9666 19.4432 45.9666 21.3012V22.1667C45.9666 22.4569 45.7303 22.6931 45.4401 22.6931H44.9247V18.7035H44.9245ZM46.5099 27.8343C46.4616 27.0721 45.8274 26.475 45.066 26.475C44.9878 26.475 44.9244 26.4115 44.9244 26.3334V24.8024H45.4398C46.8933 24.8024 48.0757 23.6201 48.0757 22.1667V21.3012C48.0757 20.8835 48.4812 20.5854 48.8858 20.7185C51.6007 21.6156 54.5907 21.6153 57.3053 20.718C57.7033 20.5858 58.1123 20.8821 58.1123 21.3013V22.1666C58.1123 23.6199 59.2947 24.8023 60.7481 24.8023H61.2636V26.3333C61.2636 26.4113 61.2 26.4749 61.1218 26.4749C60.3606 26.4749 59.7264 27.072 59.678 27.8346C59.4597 31.2983 56.5676 34.0117 53.0939 34.0117C49.6204 34.0118 46.7285 31.2984 46.5099 27.8343ZM53.9598 45.4249H52.2102L51.5311 44.2586L53.174 42.8862L54.6651 44.1611L53.9598 45.4249ZM55.4004 54.9617H50.7824L52.4481 47.5343H53.7345L55.4004 54.9617ZM53.1705 40.1802L50.0419 37.8423V35.5675C50.9939 35.9256 52.0231 36.121 53.0941 36.121C54.1653 36.121 55.1945 35.9256 56.1465 35.5675V37.8756L53.1705 40.1802ZM47.8179 39.0696C47.9498 39.0102 48.1036 39.0273 48.2198 39.1139C49.2663 39.896 49.9669 40.4195 51.4814 41.5513L49.9655 42.8176C49.9579 42.8239 49.9492 42.8281 49.9402 42.8305C49.9357 42.8311 49.9312 42.8318 49.9267 42.8325C49.9105 42.833 49.8944 42.8277 49.8817 42.8165L46.66 39.5897L47.8179 39.0696ZM10.0168 46.5297C7.35074 45.6039 7.19633 42.8143 8.00394 40.1218C8.55603 38.2798 8.8363 36.3706 8.83686 34.443C8.83869 29.164 13.1346 24.8694 18.4135 24.8694C23.6925 24.8694 27.9884 29.164 27.9901 34.4473C27.9907 36.3704 28.2709 38.2795 28.8231 40.1218C29.6306 42.8151 29.4761 45.6041 26.8101 46.5297C21.3955 48.4094 15.4315 48.4097 10.0168 46.5297ZM21.3513 49.8935V50.2665C20.1958 52.7527 16.6113 52.7423 15.4725 50.2438V49.8934C17.4034 50.0976 19.3737 50.1026 21.3513 49.8935ZM34.7174 69.5527C34.7174 69.699 34.6025 69.8182 34.4559 69.8241C34.4522 69.8243 34.4486 69.8244 34.4449 69.8247C34.4442 69.8247 34.4435 69.8247 34.4428 69.8248C34.4351 69.8251 34.427 69.8255 34.4187 69.8261L3.97813 69.8877H3.97448C2.94749 69.8877 2.10937 69.0569 2.10937 68.0227V58.0652C2.10937 55.8476 3.58495 53.861 5.70374 53.2172L13.8283 51.6459C15.8725 55.0996 20.9455 55.0892 22.9923 51.6689L31.125 53.2173C33.3035 53.8798 34.7174 55.883 34.7174 58.065V69.5527ZM36.3009 46.7798C36.3009 44.4701 37.8487 42.4026 40.0651 41.7521L44.704 40.3905C44.808 40.6414 44.9608 40.8732 45.1583 41.0707L48.3977 44.3151C48.4012 44.3186 48.4049 44.3221 48.4084 44.3256C48.7102 44.6194 49.0756 44.8091 49.46 44.8933L50.4841 46.6523L48.6207 54.9614H36.3009V46.7798ZM69.8905 57.071V67.9583C69.8905 68.9866 69.0539 69.8233 68.0255 69.8233H36.8118C36.8217 69.7346 36.8268 69.6443 36.8268 69.5527V58.0651C36.8268 57.7314 36.8036 57.3995 36.7576 57.0712C41.3871 57.071 62.5992 57.071 69.8905 57.071ZM56.3409 42.7425C56.3284 42.7544 56.3126 42.7605 56.2967 42.7605C56.2884 42.7588 56.2801 42.7571 56.2718 42.7556C56.2658 42.753 56.26 42.7497 56.2547 42.7452L54.8521 41.5459L57.9806 39.1235C58.0967 39.0332 58.2525 39.0147 58.3868 39.0744L59.5674 39.6005L56.3409 42.7425Z" fill="#474654"/>
</svg>
