<svg width="72" height="72" viewBox="0 0 72 72" fill="none" xmlns="http://www.w3.org/2000/svg">
<path d="M49.0452 15.9431V19.4894C49.0452 20.1388 49.4329 20.7188 50.0326 20.9673C50.6411 21.2193 51.3236 21.0731 51.7762 20.6205L56.2287 16.1679H67.4704C69.7571 16.1679 71.6173 14.3076 71.6173 12.021V4.14689C71.6173 1.86033 69.7571 0 67.4704 0H50.3925C48.1058 0 46.2456 1.86033 46.2456 4.14689V12.0209C46.2455 13.7991 47.3965 15.3752 49.0452 15.9431ZM48.354 4.14689C48.354 3.02288 49.2685 2.10839 50.3925 2.10839H67.4706C68.5946 2.10839 69.5091 3.02288 69.5091 4.14689V12.0209C69.5091 13.1449 68.5946 14.0594 67.4706 14.0594H55.979C55.5773 14.0594 55.1996 14.2158 54.9147 14.5L51.1537 18.2611V15.4849C51.1537 14.778 50.6553 14.1598 49.9685 14.015C49.0331 13.8177 48.3541 12.979 48.3541 12.021V4.14689H48.354Z" fill="#474654"/>
<path d="M69.1694 61.8775H67.1643V28.7178C67.1643 26.5325 65.3865 24.7547 63.2012 24.7547H43.4766C42.8943 24.7547 42.4223 25.2266 42.4223 25.809C42.4223 26.3913 42.8943 26.8632 43.4766 26.8632H63.2011C64.2237 26.8632 65.0558 27.6952 65.0558 28.7179V61.8776H61.5417V33.3626C61.5417 31.7166 60.2025 30.3774 58.5565 30.3774H37.0209C37.3303 29.5727 37.5439 28.7196 37.6418 27.8305C38.7617 27.5837 39.6022 26.5832 39.6022 25.39C39.6022 24.4258 39.6022 17.1444 39.6022 16.2766C39.6022 14.1933 37.9164 12.4964 35.8373 12.4787C35.7699 10.4432 34.093 8.80811 32.0414 8.80811H22.5863C18.5231 8.80811 15.2175 12.1138 15.2175 16.177V25.39C15.2175 26.5832 16.058 27.5837 17.178 27.8305C17.2759 28.7198 17.4895 29.5727 17.7989 30.3774H13.4122C11.7662 30.3774 10.4271 31.7166 10.4271 33.3626V41.9744C9.04584 42.4929 7.84589 43.3521 6.91298 44.4369V28.7178C6.91298 27.6952 7.74492 26.8631 8.76769 26.8631H11.3965C11.9789 26.8631 12.4508 26.3912 12.4508 25.8088C12.4508 25.2265 11.9789 24.7546 11.3965 24.7546H8.76769C6.58238 24.7546 4.80459 26.5323 4.80459 28.7177V50.0786V61.8773H2.79942C1.25578 61.8773 0 63.1332 0 64.6767C0 68.7149 3.285 71.9999 7.32291 71.9999H64.6459C68.6838 71.9999 71.9688 68.7149 71.9688 64.677C71.9688 63.1334 70.7129 61.8775 69.1694 61.8775ZM58.5565 32.4858C59.04 32.4858 59.4333 32.8792 59.4333 33.3626V61.8776H50.0192V58.0149C50.0192 57.4326 49.5473 56.9606 48.9649 56.9606C48.3826 56.9606 47.9107 57.4326 47.9107 58.0149V61.8776H42.8493V58.5323C42.8493 57.9499 42.3773 57.478 41.795 57.478C41.2127 57.478 40.7407 57.9499 40.7407 58.5323V61.8776H32.1654L29.8925 49.0609L30.7647 47.4981C30.933 47.535 31.1039 47.5556 31.2751 47.5556C31.8772 47.5556 32.4788 47.3285 32.9482 46.8775L36.8618 43.0665C37.1422 42.7935 37.3373 42.4614 37.4487 42.1064L43.2086 43.7973C45.9772 44.6101 47.9108 47.1931 47.9108 50.0785V53.0864C47.9108 53.6687 48.3827 54.1407 48.9651 54.1407C49.5474 54.1407 50.0193 53.6687 50.0193 53.0864V50.0785C50.0193 46.2637 47.4629 42.8489 43.8026 41.7741L36.8454 39.7317C36.6539 39.5487 36.4321 39.3984 36.1886 39.29L34.7486 38.6485C34.3243 38.4593 33.8698 38.3824 33.4236 38.4112V35.0409C34.3934 34.3405 35.2375 33.476 35.9144 32.486H58.5565V32.4858ZM19.5368 41.2029L20.9492 40.5687C21.1812 40.4646 21.4518 40.4944 21.6555 40.6467L25.8164 43.7557L23.7727 45.4627C23.6568 45.5599 23.4882 45.5543 23.3789 45.4508L19.4746 41.5405V41.5404C19.3695 41.4355 19.4079 41.2607 19.5368 41.2029ZM31.3149 36.2155V39.435L27.5047 42.3854L23.505 39.3969V36.2156C25.9744 37.2329 28.7758 37.2616 31.3149 36.2155ZM35.3303 41.216C35.46 41.2734 35.4988 41.4505 35.3908 41.5559L31.4824 45.3617C31.3717 45.4682 31.2006 45.4731 31.084 45.3734C31.0839 45.3734 31.0839 45.3734 31.0839 45.3734L29.1856 43.7502L33.1764 40.6601C33.3804 40.5017 33.6541 40.469 33.8902 40.5742L35.3303 41.216ZM26.6406 47.821L25.8546 46.4711L27.5079 45.0901L28.9879 46.3555L28.1701 47.821H26.6406ZM26.9183 49.9294H27.9052L30.0241 61.8775H24.8005L26.9183 49.9294ZM45.3765 63.986C44.9508 65.0944 43.878 65.8846 42.6216 65.8846H29.347C28.0907 65.8846 27.0179 65.0944 26.5922 63.986H45.3765ZM17.326 16.177C17.326 13.2763 19.6858 10.9165 22.5865 10.9165H32.0415C32.9732 10.9165 33.731 11.6743 33.731 12.606C33.731 13.6982 34.6198 14.5869 35.712 14.5869H35.8044C36.736 14.5869 37.4939 15.3448 37.4939 16.2764V21.2136H36.6522C36.1808 21.2136 35.7974 20.8301 35.7974 20.3588V19.3139C35.7974 17.2199 33.7531 15.7423 31.7644 16.3993C28.9574 17.327 25.8657 17.3273 23.0587 16.4C23.0555 16.3989 23.0511 16.3975 23.0469 16.3962C21.0635 15.7472 19.0226 17.2197 19.0226 19.3136V20.3589C19.0226 20.8303 18.6391 21.2138 18.1676 21.2138H17.326V16.177ZM17.326 25.39V23.3222H18.1676C19.8017 23.3222 21.1312 21.9928 21.1312 20.3588V19.3135C21.1312 18.6573 21.7725 18.195 22.3937 18.4008C22.3968 18.402 22.4009 18.4032 22.4048 18.4044C25.6365 19.4702 29.1954 19.4692 32.426 18.4013C33.047 18.1955 33.6888 18.6569 33.6888 19.3139V20.3588C33.6888 21.9928 35.0182 23.3222 36.6522 23.3222H37.4939V25.39C37.4939 25.6053 37.3188 25.7803 37.1038 25.7803C36.3 25.7803 35.6302 26.411 35.5791 27.2165C35.3081 31.5141 31.7199 34.8807 27.4101 34.8807C23.1002 34.8807 19.512 31.5141 19.2409 27.2166C19.1903 26.4111 18.5206 25.7803 17.7164 25.7803C17.5011 25.7803 17.326 25.6052 17.326 25.39ZM13.4122 32.4858H18.9058C19.5826 33.4758 20.4268 34.3404 21.3964 35.0407V38.4046C20.9537 38.3792 20.504 38.4575 20.0855 38.6454L18.673 39.2794C18.4313 39.388 18.2111 39.5379 18.0207 39.7201L12.5355 41.3302V33.3628C12.5356 32.8792 12.9288 32.4858 13.4122 32.4858ZM6.91298 50.0787C6.91298 47.1931 8.84672 44.6102 11.6156 43.7974L11.7872 43.7471C11.7911 43.746 11.7949 43.7448 11.7989 43.7437L17.4136 42.0957C17.523 42.4379 17.7121 42.7595 17.9826 43.0305V43.0303L21.8942 46.9479C21.8977 46.9514 21.9012 46.9549 21.9047 46.9583C22.3715 47.4126 22.976 47.6424 23.5825 47.6424C23.7448 47.6424 23.907 47.6238 24.0668 47.5909L24.9292 49.0719L22.6593 61.8776H14.0792V58.5323C14.0792 57.9499 13.6073 57.478 13.025 57.478C12.4426 57.478 11.9707 57.9499 11.9707 58.5323V61.8776H6.91298V50.0787ZM64.6459 69.8915H7.32291C4.44769 69.8915 2.10839 67.5524 2.10839 64.677C2.10839 64.2959 2.41833 63.986 2.79942 63.986H24.397C24.8835 66.2724 26.9177 67.993 29.347 67.993H42.6216C45.0509 67.993 47.0852 66.2724 47.5716 63.986H69.1692C69.5503 63.986 69.8603 64.2959 69.8603 64.677C69.8604 67.5522 67.5211 69.8915 64.6459 69.8915Z" fill="#474654"/>
</svg>
