<svg width="14" height="14" viewBox="0 0 14 14" fill="none" xmlns="http://www.w3.org/2000/svg">
<path d="M14 0H0V14H14V0Z" fill="#0084B1"/>
<path d="M3.29488 2.1264C3.93609 2.12693 4.46494 2.65654 4.46355 3.30095C4.46202 3.97571 3.90206 4.48427 3.28698 4.46962C2.66312 4.48225 2.11487 3.96118 2.11499 3.29649C2.11499 2.65184 2.64589 2.12591 3.29488 2.1264Z" fill="white"/>
<path d="M3.9762 11.8724H2.60238C2.42408 11.8724 2.27954 11.7279 2.27954 11.5496V5.6888C2.27954 5.5105 2.42408 5.36597 2.60238 5.36597H3.9762C4.15449 5.36597 4.29903 5.5105 4.29903 5.6888V11.5496C4.299 11.7279 4.15449 11.8724 3.9762 11.8724Z" fill="white"/>
<path d="M11.8852 7.42456C11.8852 6.19589 10.8891 5.19983 9.66044 5.19983H9.30808C8.63587 5.19983 8.042 5.53523 7.68478 6.04788C7.64583 6.10376 7.60977 6.16179 7.57665 6.2217C7.56519 6.21997 7.5584 6.21908 7.55825 6.21939V5.49999C7.55825 5.42599 7.49825 5.36596 7.42422 5.36596H5.7102C5.6362 5.36596 5.57617 5.42596 5.57617 5.49999V11.7385C5.57617 11.8125 5.63614 11.8725 5.71014 11.8725L7.46151 11.873C7.53555 11.873 7.59557 11.813 7.59557 11.7389V8.13478C7.59557 7.51178 8.09247 6.99448 8.71544 6.98745C9.03345 6.98386 9.32176 7.11128 9.52954 7.31919C9.7346 7.52413 9.86138 7.80749 9.86138 8.12034V11.7394C9.86138 11.8134 9.92138 11.8734 9.99535 11.8734L11.7511 11.8738C11.8251 11.8739 11.8851 11.8138 11.8851 11.7398V7.42456H11.8852Z" fill="white"/>
</svg>
