<svg width="104" height="14" viewBox="0 0 104 14" fill="none" xmlns="http://www.w3.org/2000/svg">
<path d="M7.578 13.216C5.622 13.216 4.026 12.604 2.79 11.38C1.566 10.156 0.954 8.596 0.954 6.7C0.954 4.888 1.584 3.352 2.844 2.092C4.104 0.82 5.676 0.184 7.56 0.184C8.652 0.184 9.576 0.328 10.332 0.616C11.088 0.892 11.814 1.324 12.51 1.912L10.764 4.018C10.236 3.574 9.726 3.25 9.234 3.046C8.742 2.842 8.154 2.74 7.47 2.74C6.462 2.74 5.604 3.13 4.896 3.91C4.2 4.678 3.852 5.608 3.852 6.7C3.852 7.852 4.206 8.806 4.914 9.562C5.634 10.318 6.552 10.696 7.668 10.696C8.7 10.696 9.57 10.444 10.278 9.94V8.14H7.488V5.746H12.96V11.218C11.388 12.55 9.594 13.216 7.578 13.216ZM15.6272 13V0.399999H21.3872C22.9832 0.399999 24.2072 0.825999 25.0592 1.678C25.7792 2.398 26.1392 3.37 26.1392 4.594C26.1392 6.526 25.2392 7.828 23.4392 8.5L26.5172 13H23.2772L20.5412 8.968H18.3992V13H15.6272ZM18.3992 6.52H21.2072C21.8792 6.52 22.4012 6.358 22.7732 6.034C23.1452 5.698 23.3312 5.254 23.3312 4.702C23.3312 4.114 23.1392 3.67 22.7552 3.37C22.3712 3.058 21.8372 2.902 21.1532 2.902H18.3992V6.52Z" fill="#E93F4A"/>
<path d="M28.905 13V0.399999H34.323C35.871 0.399999 37.065 0.819999 37.905 1.66C38.553 2.308 38.877 3.148 38.877 4.18C38.877 5.188 38.565 6.004 37.941 6.628C37.317 7.252 36.489 7.66 35.457 7.852L39.327 13H37.581L33.927 8.104H30.327V13H28.905ZM30.327 6.826H34.197C35.157 6.826 35.937 6.592 36.537 6.124C37.137 5.656 37.437 5.014 37.437 4.198C37.437 3.418 37.149 2.812 36.573 2.38C36.009 1.936 35.223 1.714 34.215 1.714H30.327V6.826ZM41.9129 13V0.399999H51.0209V1.696H43.3349V5.998H50.2109V7.294H43.3349V11.704H51.1109V13H41.9129ZM58.2915 13.18C56.3595 13.18 54.6435 12.508 53.1435 11.164L54.0255 10.12C54.6975 10.732 55.3695 11.182 56.0415 11.47C56.7255 11.758 57.4935 11.902 58.3455 11.902C59.1855 11.902 59.8635 11.704 60.3795 11.308C60.8955 10.9 61.1535 10.372 61.1535 9.724C61.1535 9.112 60.9255 8.626 60.4695 8.266C60.0135 7.906 59.1495 7.594 57.8775 7.33C56.3775 7.006 55.2975 6.568 54.6375 6.016C53.9775 5.464 53.6475 4.678 53.6475 3.658C53.6475 2.662 54.0375 1.84 54.8175 1.192C55.5975 0.543999 56.5875 0.219999 57.7875 0.219999C59.4555 0.219999 60.9315 0.735999 62.2155 1.768L61.3875 2.866C60.2715 1.954 59.0595 1.498 57.7515 1.498C56.9475 1.498 56.2995 1.696 55.8075 2.092C55.3155 2.476 55.0695 2.968 55.0695 3.568C55.0695 4.192 55.3035 4.684 55.7715 5.044C56.2515 5.404 57.1575 5.728 58.4895 6.016C59.9175 6.328 60.9555 6.766 61.6035 7.33C62.2635 7.882 62.5935 8.644 62.5935 9.616C62.5935 10.684 62.1915 11.548 61.3875 12.208C60.5835 12.856 59.5515 13.18 58.2915 13.18ZM70.5251 13.198C68.9291 13.198 67.6571 12.724 66.7091 11.776C65.7611 10.816 65.2871 9.466 65.2871 7.726V0.399999H66.7091V7.636C66.7091 8.992 67.0451 10.042 67.7171 10.786C68.4011 11.518 69.3491 11.884 70.5611 11.884C71.7491 11.884 72.6791 11.53 73.3511 10.822C74.0231 10.114 74.3591 9.082 74.3591 7.726V0.399999H75.7811V7.618C75.7811 9.418 75.3071 10.798 74.3591 11.758C73.4111 12.718 72.1331 13.198 70.5251 13.198ZM79.1433 13V0.399999H80.5833L85.1733 7.276L89.7633 0.399999H91.2033V13H89.7813V2.794L85.1913 9.544H85.1193L80.5293 2.812V13H79.1433ZM94.7703 13V0.399999H103.878V1.696H96.1923V5.998H103.068V7.294H96.1923V11.704H103.968V13H94.7703Z" fill="#474654"/>
</svg>
