<svg width="46" height="46" viewBox="0 0 46 46" fill="none" xmlns="http://www.w3.org/2000/svg">
<path d="M32.2317 9.22888C28.6783 9.22983 25.4392 10.5767 22.9981 12.789C20.555 10.5796 17.3179 9.23173 13.7683 9.23173C13.7388 9.23173 13.7084 9.23173 13.6799 9.23173C6.12092 9.28113 0 15.4305 0 23C0 30.5999 6.16842 36.7673 13.7673 36.7673C17.317 36.7673 20.5541 35.4214 22.9962 33.2101C22.4861 32.7494 22.0245 32.2393 21.5885 31.7055H24.4314C24.0031 32.2308 23.5357 32.7228 23.0332 33.1806H23.0313C23.0199 33.193 23.0076 33.2006 22.9962 33.211C25.4402 35.4242 28.6811 36.773 32.2365 36.7721C39.8401 36.7692 46.0019 30.6027 46 23C46 22.9972 46 22.9953 46 22.9934C46.0009 15.3906 39.8354 9.22698 32.2317 9.22888ZM21.7462 14.2109H24.3631C24.7487 14.6783 25.1068 15.1703 25.4317 15.6851H20.7631C21.0642 15.1931 21.3947 14.6868 21.7462 14.2109ZM19.95 17.1308H26.2257C26.449 17.6076 26.6465 18.1006 26.8194 18.6059H19.2062C19.2822 18.4635 19.5482 17.8897 19.95 17.1308ZM5.62034 26.5069L6.45527 21.2428L4.57169 26.5069H3.56199L3.43091 21.2428L2.53899 26.5069H1.12464L2.29677 19.5254H4.43586L4.5109 23.8093L5.95565 19.5254H8.27616L7.12018 26.5069H5.62034ZM10.6214 26.4955L10.6698 25.9379C10.647 25.9408 10.2006 26.6114 9.16618 26.6114C8.62476 26.6114 7.75089 26.316 7.75089 25.0318C7.75089 23.399 9.0826 22.8575 10.3507 22.8575C10.5501 22.8575 10.9804 22.8936 10.9804 22.8936C10.9804 22.8936 11.0289 22.7939 11.0289 22.5241C11.0289 22.0805 10.6299 22.0197 10.0838 22.0197C9.12154 22.0197 8.48608 22.2772 8.48608 22.2772L8.69885 21.0138C8.69885 21.0138 9.47014 20.6909 10.4741 20.6909C10.9937 20.6909 12.4879 20.746 12.4879 22.4586L11.9122 26.4955H10.6214ZM16.0764 24.7174C16.0764 26.6655 14.1891 26.5819 13.8595 26.5819C12.6294 26.5819 12.2494 26.4119 12.2143 26.4024L12.41 25.1201C12.4119 25.1087 13.0274 25.3433 13.7122 25.3433C14.1074 25.3433 14.6203 25.3044 14.6203 24.8323C14.6203 24.1256 12.7852 24.2947 12.7852 22.6163C12.7852 21.1354 13.8851 20.7023 14.9699 20.7023C15.8076 20.7023 16.3225 20.8172 16.3225 20.8172L16.1372 22.1109C16.1372 22.1109 15.3422 22.0454 15.1361 22.0454C14.6146 22.0454 14.3306 22.1594 14.3306 22.5241C14.3296 23.2574 16.0764 22.8984 16.0764 24.7174ZM18.3428 25.2284C18.4729 25.2284 18.6202 25.1837 18.7209 25.1837L18.5375 26.429C18.3903 26.4699 17.9733 26.618 17.4385 26.6218C16.7556 26.6275 16.2702 26.2457 16.2702 25.3794C16.2702 24.7981 17.1032 20.0079 17.1355 19.9766H18.6012L18.4521 20.8334H19.1834L18.9963 22.2135H18.2203L17.808 24.7563C17.7767 24.9586 17.8327 25.2284 18.3428 25.2284ZM21.5667 20.6719C23.1757 20.6719 23.6573 21.8497 23.6573 22.8157C23.6573 23.2023 23.4635 24.1522 23.4635 24.1522H20.4848C20.4848 24.1522 20.2093 25.3253 21.7832 25.3253C22.5213 25.3253 23.34 24.9643 23.34 24.9643L23.0817 26.3768C23.0817 26.3768 22.6087 26.618 21.5334 26.618C20.3679 26.618 19.0011 26.1251 19.0011 24.0544C19.002 22.2601 20.0925 20.6719 21.5667 20.6719ZM25.4487 30.2874H20.5645C20.2672 29.8124 19.9899 29.3251 19.7515 28.8132H26.2514C26.012 29.3223 25.7442 29.8143 25.4487 30.2874ZM25.121 26.5174H23.6165L24.5312 20.8353H25.8961L25.7651 21.6588C25.7651 21.6588 26.2514 20.7631 26.9077 20.7631C27.0987 20.7631 27.1908 20.7821 27.1908 20.7821C26.9961 21.1791 26.8242 21.5429 26.6456 22.4823C25.6273 22.1214 25.5494 24.0905 25.121 26.5174ZM30.8535 26.429C30.8535 26.429 30.0651 26.6304 29.5712 26.6304C27.8215 26.6304 26.9334 25.4231 26.9334 23.5946C26.9334 20.8372 28.5795 19.3687 30.2712 19.3687C31.0358 19.3687 31.9221 19.7277 31.9221 19.7277L31.6827 21.2808C31.6827 21.2808 31.0833 20.8619 30.3377 20.8619C29.3403 20.8619 28.4456 21.8136 28.4456 23.5433C28.4456 24.3954 28.8626 25.1894 29.9036 25.1894C30.3985 25.1894 31.1156 24.8294 31.1156 24.8294L30.8535 26.429ZM34.3822 26.4984L34.4316 25.937C34.4079 25.9398 33.9614 26.6104 32.928 26.6104C32.3866 26.6104 31.5127 26.315 31.5127 25.0308C31.5127 23.398 32.8444 22.8566 34.1115 22.8566C34.311 22.8566 34.7422 22.8927 34.7422 22.8927C34.7422 22.8927 34.7916 22.7939 34.7916 22.5241C34.7916 22.0805 34.3927 22.0197 33.8455 22.0197C32.8833 22.0197 32.2488 22.2772 32.2488 22.2772L32.4616 21.0138C32.4616 21.0138 33.2329 20.6909 34.2378 20.6909C34.7565 20.6909 36.2515 20.746 36.2506 22.4586L35.675 26.4955C35.674 26.4984 34.3822 26.4984 34.3822 26.4984ZM37.4284 26.5174H35.9238L36.8386 20.8353H38.2045L38.0734 21.6588C38.0734 21.6588 38.5607 20.7631 39.217 20.7631C39.4079 20.7631 39.4991 20.7821 39.4991 20.7821C39.3054 21.1791 39.1315 21.5429 38.9539 22.4823C37.9347 22.1214 37.8568 24.0905 37.4284 26.5174ZM41.9203 26.5022L41.984 25.9788C41.984 25.9788 41.4976 26.5924 40.6181 26.5924C39.3994 26.5924 38.8019 25.4155 38.8019 24.213C38.8019 22.3531 39.9209 20.7317 41.264 20.7317C42.1284 20.7336 42.6802 21.4964 42.6802 21.4964L42.9975 19.5349L44.4669 19.5321L43.3461 26.5022H41.9203ZM44.8193 26.3055C44.7804 26.3758 44.7253 26.43 44.655 26.4718C44.5857 26.5107 44.5116 26.5307 44.4337 26.5307C44.3577 26.5307 44.2845 26.5107 44.2143 26.4718C44.144 26.43 44.0889 26.3758 44.0499 26.3055C44.01 26.2343 43.991 26.1621 43.991 26.0852C43.991 26.0073 44.011 25.9332 44.0499 25.8629C44.0889 25.7926 44.1468 25.7356 44.2162 25.6976C44.2883 25.6587 44.3596 25.6387 44.4337 25.6387C44.5097 25.6387 44.5819 25.6587 44.6521 25.6976C44.7243 25.7366 44.7794 25.7907 44.8193 25.8629C44.8602 25.9341 44.8782 26.0082 44.8782 26.0852C44.8782 26.1621 44.8592 26.2352 44.8193 26.3055Z" fill="white"/>
<path d="M44.7014 30.5068C44.692 30.5002 44.6834 30.4897 44.6682 30.484C44.653 30.4783 44.6293 30.4755 44.5922 30.4755H44.5029V30.6179H44.5979C44.6426 30.6179 44.672 30.6141 44.6891 30.598C44.7052 30.5847 44.7128 30.5686 44.7128 30.5458C44.7128 30.5306 44.709 30.5201 44.7014 30.5068Z" fill="white"/>
<path d="M45.0084 30.4213C44.9676 30.3472 44.9115 30.295 44.8403 30.256C44.769 30.2171 44.6968 30.1971 44.6228 30.1971C44.5468 30.1971 44.4746 30.2171 44.4043 30.256C44.334 30.295 44.2761 30.3491 44.2371 30.4213C44.1963 30.4916 44.1782 30.5657 44.1782 30.6417C44.1782 30.7177 44.1982 30.7927 44.2371 30.862C44.278 30.9323 44.3331 30.9893 44.4024 31.0283C44.4727 31.0672 44.5468 31.0872 44.6247 31.0872C44.7006 31.0872 44.7747 31.0672 44.8441 31.0283C44.9134 30.9893 44.9695 30.9323 45.0084 30.862C45.0483 30.7927 45.0673 30.7186 45.0673 30.6417C45.0673 30.5647 45.0473 30.4907 45.0084 30.4213ZM44.7348 30.8886L44.693 30.8136C44.6598 30.7547 44.6323 30.7158 44.6114 30.7006C44.5981 30.6911 44.5772 30.6835 44.5506 30.6835H44.5059V30.8877H44.428V30.408H44.5933C44.6503 30.408 44.6912 30.4128 44.7139 30.4223C44.7396 30.4318 44.7614 30.4451 44.7747 30.4688C44.7899 30.4907 44.7966 30.5144 44.7966 30.5391C44.7966 30.5742 44.7833 30.6037 44.7595 30.6312C44.7348 30.6559 44.7006 30.6721 44.6598 30.6749C44.6769 30.6806 44.6902 30.6901 44.7007 30.7006C44.7206 30.7196 44.7434 30.7509 44.7719 30.7946L44.8308 30.8886H44.7348Z" fill="white"/>
<path d="M10.4693 23.947C9.39501 23.947 9.17749 24.4296 9.17749 24.8313C9.17749 25.0384 9.29622 25.3842 9.75121 25.3842C10.6336 25.3842 10.817 24.2272 10.7885 23.9812C10.7467 23.9727 10.7201 23.948 10.4693 23.947Z" fill="white"/>
<path d="M21.5723 21.9836C20.7735 21.9836 20.6196 22.8927 20.6196 22.9886H22.2467C22.2467 22.9155 22.3997 21.9836 21.5723 21.9836Z" fill="white"/>
<path d="M41.5176 22.1422C40.8727 22.1422 40.3626 22.8907 40.3635 24.0277C40.3635 24.7211 40.6105 25.1656 41.1386 25.1656C41.9327 25.1656 42.3155 24.1293 42.3155 23.3571C42.3155 22.5051 42.0448 22.1422 41.5176 22.1422Z" fill="white"/>
<path d="M44.7528 25.9009C44.7196 25.842 44.673 25.7964 44.6141 25.7631C44.5552 25.7299 44.4954 25.7137 44.4327 25.7137C44.3719 25.7137 44.3102 25.7308 44.2513 25.7631C44.1924 25.7935 44.1458 25.841 44.1126 25.9009C44.0794 25.9607 44.0623 26.0244 44.0623 26.0861C44.0623 26.1497 44.0794 26.2124 44.1107 26.2704C44.1458 26.3293 44.1905 26.3739 44.2494 26.409C44.3083 26.4413 44.3691 26.4603 44.4327 26.4603C44.4963 26.4603 44.559 26.4413 44.616 26.409C44.6749 26.3758 44.7205 26.3302 44.7547 26.2704C44.7879 26.2115 44.8031 26.1497 44.8031 26.0861C44.8031 26.0234 44.7861 25.9607 44.7528 25.9009ZM44.5467 26.3302L44.5039 26.2561C44.4707 26.1963 44.4441 26.1583 44.4242 26.144C44.408 26.1317 44.389 26.126 44.3615 26.126H44.3178V26.3293H44.238V25.8505H44.4042C44.4602 25.8505 44.502 25.8553 44.5258 25.8657C44.5495 25.8743 44.5704 25.8904 44.5866 25.9113C44.6027 25.9322 44.6084 25.956 44.6084 25.9816C44.6084 26.0168 44.5951 26.0462 44.5704 26.0728C44.5457 26.1003 44.5115 26.1117 44.4716 26.1165C44.4906 26.1241 44.503 26.1326 44.5125 26.1412C44.5324 26.1611 44.5552 26.1896 44.5828 26.2352L44.6417 26.3302H44.5467Z" fill="white"/>
<path d="M34.2322 23.947C33.1579 23.947 32.9404 24.4296 32.9404 24.8313C32.9404 25.0384 33.0582 25.3842 33.5141 25.3842C34.3966 25.3842 34.5789 24.2272 34.5514 23.9812C34.5087 23.9727 34.4821 23.948 34.2322 23.947Z" fill="white"/>
<path d="M44.5145 25.9484C44.5069 25.9389 44.4964 25.9313 44.4822 25.9247C44.466 25.9199 44.4423 25.9152 44.4043 25.9152V25.9161H44.3179V26.0605H44.4119C44.4565 26.0605 44.486 26.0548 44.504 26.0405C44.5183 26.0263 44.5268 26.0082 44.5268 25.9873C44.5268 25.9712 44.523 25.9617 44.5145 25.9484Z" fill="white"/>
</svg>
