<svg width="72" height="72" viewBox="0 0 72 72" fill="none" xmlns="http://www.w3.org/2000/svg">
<path d="M35.9971 25.5244H8.99937C8.4169 25.5244 7.94482 25.9966 7.94482 26.579C7.94482 27.1614 8.4169 27.6335 8.99937 27.6335H35.9973C36.5797 27.6335 37.0518 27.1613 37.0518 26.579C37.0518 25.9966 36.5797 25.5244 35.9971 25.5244Z" fill="white"/>
<path d="M35.9971 32.9346H8.99937C8.4169 32.9346 7.94482 33.4068 7.94482 33.9891C7.94482 34.5714 8.4169 35.0437 8.99937 35.0437H35.9973C36.5797 35.0437 37.0518 34.5714 37.0518 33.9891C37.0518 33.4068 36.5797 32.9346 35.9971 32.9346Z" fill="white"/>
<path d="M35.9971 40.3447H8.99937C8.4169 40.3447 7.94482 40.8169 7.94482 41.3993C7.94482 41.9816 8.4169 42.4538 8.99937 42.4538H35.9973C36.5797 42.4538 37.0518 41.9816 37.0518 41.3993C37.0518 40.8169 36.5797 40.3447 35.9971 40.3447Z" fill="white"/>
<path d="M37.0518 48.8099C37.0518 48.2274 36.5797 47.7554 35.9973 47.7554H8.99937C8.4169 47.7554 7.94482 48.2276 7.94482 48.8099C7.94482 49.3922 8.4169 49.8645 8.99937 49.8645H35.9973C36.5797 49.8645 37.0518 49.3924 37.0518 48.8099Z" fill="white"/>
<path d="M8.99937 58.6152C8.4169 58.6152 7.94482 59.0875 7.94482 59.6698C7.94482 60.2521 8.4169 60.7243 8.99937 60.7243H22.5328C23.1153 60.7243 23.5874 60.2521 23.5874 59.6698C23.5874 59.0875 23.1153 58.6152 22.5328 58.6152H8.99937Z" fill="white"/>
<path d="M48.1501 13.0576V9.63567C48.1501 8.33208 47.0897 7.27148 45.7859 7.27148H24.1343C22.8307 7.27148 21.7703 8.33208 21.7703 9.63567V13.0576C21.7703 14.3612 22.8307 15.4217 24.1343 15.4217H25.9627C26.5452 15.4217 27.0173 14.9495 27.0173 14.3671C27.0173 13.7847 26.5452 13.3126 25.9627 13.3126H24.1343C23.9938 13.3126 23.8795 13.1983 23.8795 13.0578V9.63567C23.8795 9.49519 23.9938 9.38072 24.1343 9.38072H45.7859C45.9265 9.38072 46.0409 9.49505 46.0409 9.63567V13.0576C46.0409 13.1981 45.9265 13.3125 45.7859 13.3125H30.893C30.3106 13.3125 29.8385 13.7847 29.8385 14.367C29.8385 14.9495 30.3106 15.4215 30.893 15.4215H45.7861C47.0897 15.4218 48.1501 14.3612 48.1501 13.0576Z" fill="white"/>
<path d="M56.0354 64.3073C55.4529 64.3073 54.9809 64.7795 54.9809 65.3618V66.782C54.9809 68.496 53.5863 69.8908 51.8719 69.8908H5.21789C3.50381 69.8908 2.10909 68.4962 2.10909 66.782V16.0914C2.10909 15.8632 2.13581 15.6393 2.18348 15.4215H11.7858C13.7905 15.4215 15.4215 13.7905 15.4215 11.7858V2.18362C15.6393 2.13595 15.8631 2.10923 16.0913 2.10923H51.8718C53.586 2.10923 54.9807 3.50381 54.9807 5.21803V19.2583C54.9807 19.8408 55.4528 20.3129 56.0353 20.3129C56.6177 20.3129 57.0898 19.8406 57.0898 19.2583V5.21789C57.09 2.34084 54.7491 0 51.8719 0H16.0914C14.6977 0 13.3872 0.542813 12.4017 1.52831L1.52817 12.4019C0.542672 13.3874 0 14.6977 0 16.0916V66.7821C0 69.6593 2.3407 72 5.21789 72H51.8719C54.7491 72 57.09 69.6592 57.09 66.7821V65.3619C57.09 64.7795 56.6179 64.3073 56.0354 64.3073ZM13.3124 3.60056V11.7858C13.3124 12.6276 12.6276 13.3124 11.7858 13.3124H3.60056L13.3124 3.60056Z" fill="white"/>
<path d="M70.4796 37.6874C71.2198 36.6007 71.4113 35.2604 71.0051 34.01C70.5988 32.7596 69.6559 31.7879 68.4184 31.344C67.5975 31.0496 67.0497 30.2958 67.0236 29.4239C66.9838 28.1098 66.3508 26.9128 65.287 26.1399C64.2234 25.3672 62.8892 25.1353 61.6275 25.5035C60.7897 25.7479 59.9041 25.4599 59.3703 24.7701C58.5658 23.7302 57.3503 23.1338 56.0354 23.1338C54.7207 23.1338 53.505 23.7302 52.7003 24.7701C52.1665 25.46 51.2805 25.7476 50.4433 25.5035C49.1815 25.135 47.8474 25.3672 46.7835 26.1399C45.7199 26.9128 45.0872 28.1097 45.0472 29.4238C45.021 30.2957 44.4734 31.0493 43.6522 31.3439C42.4147 31.7877 41.4719 32.7596 41.0657 34.0099C40.6595 35.2603 40.851 36.6007 41.5912 37.6872C42.0823 38.4082 42.0823 39.3397 41.5912 40.0605C40.851 41.1471 40.6595 42.4874 41.0657 43.7379C41.4719 44.9883 42.4147 45.96 43.6522 46.404C44.4734 46.6986 45.0211 47.4522 45.0472 48.3241C45.084 49.5329 45.6379 50.6687 46.5674 51.4401C47.1807 51.9491 47.9174 52.2676 48.6885 52.3741V61.9757C48.6885 62.7858 49.1279 63.5346 49.8351 63.9297C50.5415 64.3244 51.4098 64.3068 52.1002 63.8817L55.968 61.5006C56.031 61.4617 56.0686 61.4793 56.1033 61.5006L59.9709 63.8817C60.661 64.3064 61.5291 64.3247 62.2361 63.9295C62.9435 63.5344 63.3828 62.7855 63.3828 61.9755V52.3738C64.1535 52.2675 64.8903 51.949 65.5035 51.4401C66.4332 50.6687 66.9873 49.533 67.024 48.3239C67.0501 47.4521 67.5979 46.6983 68.4188 46.4039C69.6565 45.96 70.5994 44.9882 71.0055 43.7377C71.4118 42.4873 71.2202 41.147 70.48 40.0604C69.9884 39.3398 69.9884 38.4083 70.4796 37.6874ZM61.0764 62.0856L57.2086 59.7046C56.4896 59.262 55.5817 59.2613 54.862 59.7046L50.9943 62.0855C50.9063 62.1391 50.7975 62.0774 50.7975 61.9755V52.1738C51.5226 52.0899 52.2415 52.3849 52.7003 52.9779C53.5051 54.0177 54.7207 54.6141 56.0355 54.6141C57.3503 54.6141 58.5658 54.0177 59.3703 52.9779C59.8293 52.3848 60.5483 52.0899 61.2733 52.1738V61.9755C61.2733 62.0781 61.1632 62.1392 61.0764 62.0856ZM68.7365 41.2484C69.1066 41.7915 69.2023 42.4613 68.9992 43.0862C68.7961 43.7112 68.3249 44.1969 67.7063 44.4188C66.0635 45.008 64.968 46.5159 64.9153 48.2604C64.8966 48.8736 64.627 49.4264 64.1564 49.8171C63.6272 50.2563 62.9106 50.4219 62.2184 50.22C60.5431 49.7312 58.7703 50.3072 57.7021 51.6873C57.3 52.2069 56.6924 52.505 56.0353 52.505C55.3783 52.505 54.7706 52.207 54.3683 51.6873C53.5528 50.6331 52.3264 50.0481 51.0463 50.0481C50.65 50.0481 50.2484 50.1043 49.8524 50.2198C49.1535 50.4235 48.439 50.2528 47.914 49.817C47.4434 49.4263 47.1738 48.8735 47.1554 48.2604C47.1025 46.5159 46.007 45.008 44.3641 44.4186C43.7456 44.1967 43.2745 43.7112 43.0713 43.0862C42.8683 42.4613 42.9639 41.7914 43.334 41.2483C44.3166 39.8059 44.3166 37.9422 43.334 36.4998C42.9639 35.9567 42.8683 35.2867 43.0713 34.6617C43.2744 34.0367 43.7456 33.551 44.3641 33.3292C46.007 32.7399 47.1025 31.232 47.1554 29.4875C47.1752 28.8306 47.4913 28.2324 48.023 27.8463C48.5544 27.46 49.221 27.3441 49.8523 27.528C51.5271 28.017 53.3004 27.4409 54.3683 26.0608C54.7705 25.541 55.378 25.2429 56.0353 25.2429C56.6924 25.2429 57.2999 25.5409 57.7021 26.0606C58.7701 27.4409 60.5426 28.0169 62.2183 27.528C62.8491 27.3438 63.5157 27.4598 64.0474 27.8461C64.5791 28.2323 64.8955 28.8306 64.9152 29.4874C64.968 31.2318 66.0635 32.7399 67.7063 33.3291C68.3249 33.5509 68.796 34.0366 68.9992 34.6615C69.2023 35.2865 69.1066 35.9565 68.7365 36.4995C67.7537 37.942 67.7537 39.806 68.7365 41.2484Z" fill="white"/>
<path d="M56.0354 30.0352C51.1616 30.0352 47.1965 34.0002 47.1965 38.874C47.1965 43.7478 51.1616 47.7128 56.0354 47.7128C60.909 47.7128 64.8741 43.7478 64.8741 38.874C64.8741 34.0002 60.909 30.0352 56.0354 30.0352ZM56.0354 45.6038C52.3246 45.6038 49.3056 42.5848 49.3056 38.8741C49.3056 35.1635 52.3246 32.1444 56.0354 32.1444C59.7462 32.1444 62.765 35.1633 62.765 38.8741C62.765 42.585 59.746 45.6038 56.0354 45.6038Z" fill="white"/>
</svg>
