<svg width="68" height="68" viewBox="0 0 68 68" fill="none" xmlns="http://www.w3.org/2000/svg">
<path d="M66.9352 12.3508C67.5233 12.3508 68 11.8741 68 11.286V5.60748C68 2.5156 65.4844 0 62.3925 0H5.60748C2.5156 0 0 2.5156 0 5.60748V62.3924C0 65.4844 2.5156 68 5.60748 68H62.3924C65.4844 68 68 65.4844 68 62.3925V15.8289C68 15.2409 67.5235 14.7641 66.9352 14.7641C66.3471 14.7641 65.8705 15.2408 65.8705 15.8289V62.3925C65.8705 64.3103 64.3103 65.8706 62.3924 65.8706H5.60748C3.68966 65.8706 2.12938 64.3103 2.12938 62.3925V5.60748C2.12938 3.68966 3.68966 2.12938 5.60748 2.12938H62.3924C64.3103 2.12938 65.8705 3.68966 65.8705 5.60748V11.286C65.8706 11.8741 66.3471 12.3508 66.9352 12.3508Z" fill="#474654"/>
<path d="M20.3715 31.7286C20.9595 31.7286 21.4363 31.252 21.4363 30.6639V26.0501C21.4363 25.4621 20.9596 24.9854 20.3715 24.9854H11.2859C10.698 24.9854 10.2212 25.462 10.2212 26.0501V56.714C10.2212 57.302 10.6979 57.7788 11.2859 57.7788H20.3715C20.9595 57.7788 21.4363 57.3021 21.4363 56.714V35.3486C21.4363 34.7606 20.9596 34.2838 20.3715 34.2838C19.7834 34.2838 19.3068 34.7605 19.3068 35.3486V55.6492H12.3507V27.1149H19.3069V30.6639C19.3069 31.2518 19.7836 31.7286 20.3715 31.7286Z" fill="#474654"/>
<path d="M54.1942 27.9019C52.0268 26.0484 49.2198 24.9854 46.4928 24.9854C41.9917 24.9854 39.1404 26.4819 37.3362 28.3257V26.0501C37.3362 25.4621 36.8596 24.9854 36.2714 24.9854H27.1859C26.5979 24.9854 26.1211 25.462 26.1211 26.0501V56.714C26.1211 57.302 26.5978 57.7788 27.1859 57.7788H36.2714C36.8595 57.7788 37.3362 57.3021 37.3362 56.714V41.9498C37.3362 39.1 39.7311 37.336 41.95 37.336C44.6233 37.336 46.5637 39.2764 46.5637 41.9498V56.7139C46.5637 57.3018 47.0403 57.7786 47.6285 57.7786H56.7141C57.3021 57.7786 57.7788 57.302 57.7788 56.7139V35.1355C57.7788 32.448 56.5057 29.879 54.1942 27.9019ZM55.6493 55.6491H48.6931V41.9498C48.6931 38.1054 45.7941 35.2066 41.95 35.2066C38.7069 35.2066 35.2068 37.7848 35.2068 41.9498V55.6491H28.2506V27.1147H35.2068V31.7285C35.2068 32.2141 35.5485 32.6484 36.0203 32.763C36.5064 32.8809 37.023 32.6338 37.2355 32.1806C38.8121 28.8191 41.9268 27.1147 46.4929 27.1147C50.8153 27.1147 55.6496 30.545 55.6496 35.1355V55.6491H55.6493Z" fill="#474654"/>
<path d="M15.8289 10.2212C12.7369 10.2212 10.2214 12.7368 10.2214 15.8287C10.2214 18.9205 12.737 21.4361 15.8289 21.4361C18.9208 21.4361 21.4364 18.9205 21.4364 15.8287C21.4364 12.7368 18.9208 10.2212 15.8289 10.2212ZM15.8289 19.3069C13.9111 19.3069 12.3508 17.7466 12.3508 15.8288C12.3508 13.911 13.9111 12.3507 15.8289 12.3507C17.7467 12.3507 19.307 13.911 19.307 15.8288C19.307 17.7466 17.7466 19.3069 15.8289 19.3069Z" fill="#474654"/>
</svg>
