<svg width="72" height="66" viewBox="0 0 72 66" fill="none" xmlns="http://www.w3.org/2000/svg">
<path d="M31.5869 59.3923H5.0272C3.41831 59.3923 2.10938 58.0833 2.10938 56.4744V18.0584H5.54948C6.13195 18.0584 6.60417 17.5863 6.60417 17.0037C6.60417 16.4211 6.13195 15.949 5.54948 15.949H2.10938V10.1341C2.10938 8.52539 3.41831 7.21645 5.0272 7.21645H8.51737V8.51344C8.51737 10.6142 10.2265 12.3235 12.3275 12.3235C14.4284 12.3235 16.1374 10.6144 16.1374 8.51344V7.21645H49.9215V8.51344C49.9215 10.6142 51.6305 12.3235 53.7314 12.3235H53.7315C55.8323 12.3235 57.5415 10.6144 57.5415 8.51344V7.21645H61.0317C62.6406 7.21645 63.9495 8.52539 63.9495 10.1341V15.949H10.4801C9.89761 15.949 9.42539 16.4211 9.42539 17.0037C9.42539 17.5863 9.89761 18.0584 10.4801 18.0584H63.9495V36.1104C63.9495 36.693 64.4216 37.1651 65.0042 37.1651C65.5868 37.1651 66.0589 36.693 66.0589 36.1104V10.1341C66.0589 7.36214 63.8037 5.10708 61.0317 5.10708H57.5415V3.81009C57.5415 1.7093 55.8323 0 53.7314 0C51.6305 0 49.9215 1.70916 49.9215 3.81009V5.10708H16.1374V3.81009C16.1374 1.7093 14.4283 0 12.3275 0C10.2267 0 8.51737 1.7093 8.51737 3.81023V5.10722H5.0272C2.2552 5.10708 0 7.36214 0 10.1341V56.4743C0 59.2463 2.2552 61.5015 5.0272 61.5015H31.5869C32.1694 61.5015 32.6416 61.0294 32.6416 60.4468C32.6416 59.8642 32.1694 59.3923 31.5869 59.3923ZM52.0308 3.81023C52.0308 2.87241 52.7937 2.10952 53.7315 2.10952C54.6692 2.10952 55.4321 2.87241 55.4321 3.81023V8.51344C55.4321 9.45127 54.6692 10.2142 53.7314 10.2142C52.7937 10.2142 52.0308 9.45127 52.0308 8.51344V3.81023ZM10.6267 3.81023C10.6267 2.87241 11.3896 2.10952 12.3275 2.10952C13.2653 2.10952 14.028 2.87241 14.028 3.81023V8.51344C14.028 9.45127 13.2652 10.2142 12.3275 10.2142C11.3898 10.2142 10.6267 9.45127 10.6267 8.51344V3.81023Z" fill="#474654"/>
<path d="M69.6702 39.9866H37.7926C36.4841 39.9866 35.4629 41.0611 35.4629 42.3163V63.6578C35.4629 64.9351 36.5073 65.9874 37.7926 65.9874H69.6702C70.9441 65.9874 71.9999 64.9461 71.9999 63.6578V42.3163C71.9999 41.0579 70.9753 39.9866 69.6702 39.9866ZM68.5988 42.0959L54.6965 52.7782C54.128 53.2147 53.3345 53.2147 52.7661 52.7781L38.8642 42.0959H68.5988ZM37.5723 62.2382V43.7632L47.8671 51.6736L37.5723 62.2382ZM38.9196 63.8781L49.5511 52.9678L51.4811 54.4507C52.8056 55.4685 54.6568 55.469 55.9818 54.4507L57.9117 52.9678L68.5434 63.8781H38.9196ZM69.8906 62.2382L59.5958 51.6738L69.8906 43.7635V62.2382Z" fill="#474654"/>
<path d="M18.1652 25.4747C18.1652 24.0644 17.0178 22.917 15.6075 22.917H9.51789C8.10756 22.917 6.96021 24.0644 6.96021 25.4747V31.5642C6.96021 32.9745 8.10756 34.1219 9.51789 34.1219H15.6075C17.0178 34.1219 18.1652 32.9745 18.1652 31.5642V25.4747ZM16.0558 31.5642C16.0558 31.8114 15.8547 32.0125 15.6075 32.0125H9.51789C9.27067 32.0125 9.06958 31.8112 9.06958 31.5642V25.4747C9.06958 25.2275 9.27067 25.0264 9.51789 25.0264H15.6075C15.8547 25.0264 16.0558 25.2276 16.0558 25.4747V31.5642Z" fill="#474654"/>
<path d="M15.6075 38.8616H9.51789C8.10756 38.8616 6.96021 40.0089 6.96021 41.4193V47.509C6.96021 48.9192 8.10756 50.0667 9.51789 50.0667H15.6075C17.0178 50.0667 18.1652 48.9194 18.1652 47.509V41.4193C18.1652 40.0089 17.0178 38.8616 15.6075 38.8616ZM16.0558 47.509C16.0558 47.7562 15.8547 47.9573 15.6075 47.9573H9.51789C9.27067 47.9573 9.06958 47.7562 9.06958 47.509V41.4193C9.06958 41.172 9.27067 40.9709 9.51789 40.9709H15.6075C15.8547 40.9709 16.0558 41.1722 16.0558 41.4193V47.509Z" fill="#474654"/>
<path d="M31.8542 25.4747C31.8542 24.0644 30.7068 22.917 29.2965 22.917H23.2069C21.7965 22.917 20.6492 24.0644 20.6492 25.4747V31.5642C20.6492 32.9745 21.7965 34.1219 23.2069 34.1219H29.2965C30.7068 34.1219 31.8542 32.9745 31.8542 31.5642V25.4747ZM29.7448 31.5642C29.7448 31.8114 29.5437 32.0125 29.2965 32.0125H23.2069C22.9596 32.0125 22.7585 31.8112 22.7585 31.5642V25.4747C22.7585 25.2275 22.9596 25.0264 23.2069 25.0264H29.2965C29.5437 25.0264 29.7448 25.2276 29.7448 25.4747V31.5642Z" fill="#474654"/>
<path d="M29.2965 38.8616H23.2069C21.7965 38.8616 20.6492 40.0089 20.6492 41.4193V47.509C20.6492 48.9192 21.7965 50.0667 23.2069 50.0667H29.2965C30.7068 50.0667 31.8542 48.9194 31.8542 47.509V41.4193C31.8542 40.0089 30.7067 38.8616 29.2965 38.8616ZM29.7448 47.509C29.7448 47.7562 29.5437 47.9573 29.2965 47.9573H23.2069C22.9596 47.9573 22.7585 47.7562 22.7585 47.509V41.4193C22.7585 41.172 22.9596 40.9709 23.2069 40.9709H29.2965C29.5437 40.9709 29.7448 41.1722 29.7448 41.4193V47.509Z" fill="#474654"/>
<path d="M42.9853 34.1219C44.3955 34.1219 45.543 32.9745 45.543 31.5642V25.4747C45.543 24.0644 44.3957 22.917 42.9853 22.917H36.8956C35.4852 22.917 34.3379 24.0644 34.3379 25.4747V31.5642C34.3379 32.9745 35.4852 34.1219 36.8956 34.1219H42.9853ZM36.4473 31.5642V25.4747C36.4473 25.2275 36.6485 25.0264 36.8956 25.0264H42.9853C43.2326 25.0264 43.4337 25.2276 43.4337 25.4747V31.5642C43.4337 31.8114 43.2326 32.0125 42.9853 32.0125H36.8956C36.6484 32.0125 36.4473 31.8114 36.4473 31.5642Z" fill="#474654"/>
<path d="M50.5845 22.917C49.1742 22.917 48.0269 24.0644 48.0269 25.4747V31.5642C48.0269 32.9745 49.1742 34.1219 50.5845 34.1219H56.674C58.0844 34.1219 59.2317 32.9745 59.2317 31.5642V25.4747C59.2317 24.0644 58.0844 22.917 56.674 22.917H50.5845ZM57.1223 25.4747V31.5642C57.1223 31.8114 56.9211 32.0125 56.674 32.0125H50.5845C50.3373 32.0125 50.1362 31.8112 50.1362 31.5642V25.4747C50.1362 25.2275 50.3375 25.0264 50.5845 25.0264H56.674C56.9211 25.0264 57.1223 25.2275 57.1223 25.4747Z" fill="#474654"/>
</svg>
