<svg width="72" height="72" viewBox="0 0 72 72" fill="none" xmlns="http://www.w3.org/2000/svg">
<path d="M68.2763 51.0983H62.5447V49.3456C62.5447 48.7631 62.0724 48.2909 61.49 48.2909C60.9075 48.2909 60.4353 48.763 60.4353 49.3456V51.0983H50.6801C51.3878 50.0167 51.8117 49.0389 51.9663 48.1396C52.1798 46.897 51.7686 45.5968 50.8061 44.4482C52.7711 43.0172 53.767 41.7011 53.767 40.5339C53.767 39.9364 53.6397 39.3089 53.3883 38.6653L55.7281 39.4061C58.101 40.1573 59.8604 42.1424 60.3195 44.5867C60.4276 45.1617 60.9809 45.5355 61.5507 45.4285C62.1232 45.3209 62.5001 44.7698 62.3925 44.1973C61.7895 40.9878 59.4797 38.3813 56.3647 37.3951L51.0863 35.724C49.2896 34.445 47.6218 34.5213 46.9226 34.3664L45.4324 33.068C44.7148 32.4429 43.7979 32.185 42.9164 32.2906V29.4943C45.4403 27.6072 47.1787 24.7133 47.5135 21.3927C48.7742 21.166 49.7339 20.0609 49.7339 18.7357V8.35847C49.7339 6.05419 47.8592 4.17952 45.5549 4.17952L45.4492 4.17895C45.4492 1.87467 43.5745 0 41.2702 0H30.5038C27.0224 0 23.8996 2.20289 22.7336 5.48184C22.5384 6.03056 22.825 6.6337 23.3738 6.82889C23.9226 7.0245 24.5258 6.73748 24.7209 6.18848C25.5887 3.74864 27.9127 2.10923 30.5038 2.10923H41.2702C42.4114 2.10923 43.3399 3.03764 43.3399 4.17895C43.3399 5.34234 44.2863 6.28875 45.4497 6.28875H45.555C46.6962 6.28875 47.6248 7.21716 47.6248 8.35833V14.1261H46.5206C45.9034 14.1261 45.4012 13.6239 45.4012 13.0067V11.8169C45.4012 9.5317 43.1699 7.91902 41.0005 8.63663C37.7748 9.70298 34.2218 9.70312 30.996 8.63733C30.9923 8.63606 30.9877 8.63452 30.9831 8.63311C28.8191 7.92506 26.5918 9.5317 26.5918 11.8166V13.0068C26.5918 13.6239 26.0896 14.1262 25.4724 14.1262H24.3682V10.7657C24.3682 10.1832 23.896 9.711 23.3135 9.711C22.731 9.711 22.2588 10.1831 22.2588 10.7657V18.7357C22.2588 20.0607 23.2185 21.1659 24.4793 21.3927C24.8141 24.7134 26.5525 27.6072 29.0763 29.4943V32.2899C28.196 32.1857 27.281 32.4437 26.5645 33.068L25.055 34.3831C24.759 34.4571 23.7455 34.5285 22.5079 35.218L15.6323 37.395C11.9358 38.5653 9.45239 41.9566 9.45239 45.8339V51.0982H3.72066C1.66908 51.0982 0 52.7673 0 54.8189V68.2793C0 70.3309 1.66908 72 3.72066 72H68.2764C70.328 72 71.997 70.3309 71.997 68.2793V54.8189C71.9969 52.7673 70.3278 51.0983 68.2763 51.0983ZM47.529 36.5812C47.7087 36.6266 48.7443 36.6265 49.9823 37.5303C50.5801 37.9855 51.0517 38.5788 51.3464 39.2473C51.553 39.7156 51.6578 40.1484 51.6578 40.5339C51.6578 40.7264 51.2286 41.5776 49.3215 42.9168C48.9022 43.2113 48.6297 43.6801 48.574 44.2028C48.5177 44.7307 48.688 45.2526 49.0414 45.6349C49.5089 46.1403 50.0351 46.9232 49.8874 47.7825C49.7814 48.3997 49.3751 49.4634 48.0722 51.0983H42.882C45.8294 45.1585 47.388 40.2886 47.529 36.5812ZM40.5354 51.069L38.819 44.5846L39.7718 43.46C40.8268 43.6527 41.8919 43.2255 42.5257 42.3803L45.1519 38.8782C44.5568 42.1412 43.0124 46.222 40.5354 51.069ZM44.0468 34.6584L45.0343 35.5186L40.8379 41.1148C40.5938 41.4404 40.1248 41.4937 39.8138 41.2249L37.5792 39.2922C44.3462 32.9947 42.144 35.0568 42.5908 34.6296C43.0163 34.2865 43.6285 34.2939 44.0468 34.6584ZM37.9232 42.3786L37.1697 43.2678H34.8214L34.0568 42.393L35.9985 40.7139L37.9232 42.3786ZM31.1854 33.4003V30.7484C32.6545 31.4228 34.2852 31.7981 35.9962 31.7981C37.7073 31.7981 39.338 31.4228 40.807 30.7484V33.4045L35.9985 37.8823L31.1854 33.4003ZM35.1886 45.3772H36.8467L38.3612 51.0983H33.9168L35.1886 45.3772ZM26.5486 20.8249C26.4956 19.9845 25.797 19.3261 24.9583 19.3261C24.6329 19.3261 24.3681 19.0613 24.3681 18.7359V16.2354H25.4722C27.2526 16.2354 28.7009 14.7871 28.7009 13.0068V11.8167C28.7009 10.971 29.5268 10.3733 30.3301 10.639C30.3337 10.6403 30.338 10.6417 30.3424 10.6429C33.9927 11.8468 38.0123 11.8458 41.6623 10.6395C42.4658 10.3739 43.2918 10.971 43.2918 11.8171V13.007C43.2918 14.7873 44.7401 16.2356 46.5204 16.2356H47.6246V18.736C47.6246 19.0614 47.3598 19.3262 47.0344 19.3262C46.1956 19.3262 45.4971 19.9845 45.444 20.8252C45.1305 25.7954 40.9805 29.689 35.9962 29.689C31.0119 29.689 26.862 25.7953 26.5486 20.8249ZM27.9499 34.6584C28.3669 34.2951 28.9761 34.2865 29.4013 34.6258C29.5301 34.7493 34.3953 39.2716 34.4175 39.2923L32.183 41.2251C32.0331 41.3546 31.8424 41.4139 31.647 41.3925C31.4506 41.3715 31.2773 41.2727 31.1588 41.1148L26.9625 35.5186L27.9499 34.6584ZM29.4713 42.3802C30.0873 43.2015 31.1311 43.647 32.1931 43.4655L33.1973 44.6145L31.8444 50.7004C29.2165 45.962 27.5849 42.0837 26.9167 38.9734L29.4713 42.3802ZM21.7375 38.8789C22.3244 37.7781 23.3395 37.0018 24.4777 36.6626C24.671 40.3206 26.3762 45.072 29.6567 51.0983H24.832C23.5292 49.4636 23.123 48.3999 23.0168 47.7825C22.8693 46.9232 23.3954 46.1403 23.8629 45.6346C24.2162 45.2524 24.3865 44.7307 24.3302 44.2028C24.2745 43.68 24.002 43.2113 23.5827 42.9168C21.6757 41.5776 21.2465 40.7264 21.2465 40.5339C21.2465 40.0468 21.4117 39.4899 21.7375 38.8789ZM11.5615 45.834C11.5615 42.8806 13.4532 40.2975 16.2688 39.4061L19.6559 38.3337C19.3115 39.0952 19.1372 39.8334 19.1372 40.5339C19.1372 41.7009 20.1331 43.0169 22.0981 44.4482C21.1357 45.597 20.7246 46.897 20.9379 48.1396C21.0925 49.039 21.5165 50.0168 22.2241 51.0983H11.5615V45.834ZM69.8877 68.2793C69.8877 69.1678 69.1649 69.8908 68.2763 69.8908H3.72066C2.83219 69.8908 2.10923 69.168 2.10923 68.2793V54.8189C2.10923 53.9304 2.83205 53.2076 3.72066 53.2076H68.2764C69.1649 53.2076 69.8878 53.9304 69.8878 54.8189V68.2793H69.8877Z" fill="#474654"/>
<path d="M13.5992 59.1565L12.3633 59.1122L11.9391 57.9503C11.6862 57.2573 11.046 56.8096 10.3082 56.8096C9.57031 56.8096 8.93033 57.2573 8.6772 57.9503L8.25322 59.1122L7.01727 59.1565C6.27997 59.1829 5.65616 59.6534 5.4282 60.3551C5.20025 61.0569 5.42834 61.804 6.00927 62.2586L6.98295 63.021L6.6432 64.2104C6.44056 64.9198 6.69538 65.6583 7.29219 66.0919C7.88914 66.5255 8.67017 66.5394 9.28231 66.1275L10.3083 65.4369L11.3342 66.1275C11.6313 66.3275 11.9681 66.4272 12.3045 66.4272C12.6611 66.4271 13.0172 66.3151 13.3243 66.0919C13.9211 65.6584 14.1759 64.9197 13.9733 64.2102L13.6335 63.0211L14.6072 62.2588C15.1881 61.804 15.4162 61.0569 15.1883 60.3551C14.9602 59.6534 14.3365 59.1829 13.5992 59.1565ZM12.1355 61.5147C11.5765 61.9524 11.3412 62.6762 11.5361 63.359L11.6641 63.8069L11.2776 63.5468C10.6887 63.1504 9.92764 63.1502 9.33856 63.5468L8.95213 63.8069L9.0801 63.3589C9.27514 62.6763 9.04002 61.9522 8.48089 61.5147L8.11414 61.2276L8.57947 61.2109C9.28906 61.1855 9.90486 60.7382 10.1484 60.0712L10.3082 59.6335L10.4679 60.0712C10.7115 60.7382 11.3273 61.1855 12.0366 61.2109L12.5022 61.2276L12.1355 61.5147Z" fill="#474654"/>
<path d="M26.4443 59.1565L25.2084 59.1122L24.7843 57.9503C24.5313 57.2573 23.8911 56.8096 23.1533 56.8096C22.4156 56.8096 21.7754 57.2573 21.5223 57.9503L21.0982 59.1122L19.8622 59.1565C19.1249 59.1829 18.5011 59.6534 18.2732 60.3551C18.0452 61.0569 18.2733 61.804 18.8542 62.2586L19.8279 63.021L19.4882 64.2104C19.2855 64.9198 19.5403 65.6583 20.1372 66.0919C20.7341 66.5255 21.5151 66.5394 22.1273 66.1275L23.1533 65.4369L24.1791 66.1275C24.791 66.5393 25.5719 66.5259 26.1691 66.0919C26.7659 65.6584 27.0208 64.9197 26.8181 64.2102L26.4784 63.0211L27.4521 62.2588C28.033 61.804 28.2611 61.0569 28.0331 60.3551C27.8053 59.6534 27.1815 59.1829 26.4443 59.1565ZM24.9806 61.5147C24.4216 61.9524 24.1863 62.6762 24.3812 63.359L24.5092 63.8069L24.1228 63.5468C23.5338 63.1504 22.7728 63.1502 22.1837 63.5468L21.7972 63.8069L21.9252 63.3589C22.1203 62.6763 21.8851 61.9522 21.326 61.5147L20.9593 61.2276L21.4246 61.2109C22.1342 61.1855 22.75 60.7382 22.9935 60.0712L23.1533 59.6335L23.313 60.0712C23.5566 60.7382 24.1724 61.1855 24.8817 61.2109L25.3473 61.2276L24.9806 61.5147Z" fill="#474654"/>
<path d="M39.2895 59.1565L38.0536 59.1122L37.6295 57.9503C37.3765 57.2573 36.7364 56.8096 35.9985 56.8096C35.2606 56.8096 34.6207 57.2573 34.3675 57.9503L33.9434 59.1122L32.7075 59.1565C31.9702 59.1829 31.3463 59.6534 31.1184 60.3551C30.8904 61.0569 31.1185 61.804 31.6995 62.2586L32.6733 63.0211L32.3335 64.2104C32.1309 64.9198 32.3857 65.6584 32.9825 66.0919C33.5792 66.5254 34.3599 66.5398 34.9725 66.1275L35.9985 65.4369L37.0244 66.1275C37.6365 66.5396 38.4177 66.5256 39.0143 66.0919C39.6112 65.6584 39.866 64.9197 39.6633 64.2102L39.3236 63.0211L40.2973 62.2588C40.8783 61.8041 41.1064 61.0569 40.8785 60.3551C40.6505 59.6534 40.0268 59.1829 39.2895 59.1565ZM37.8258 61.5147C37.2668 61.9524 37.0315 62.6762 37.2264 63.359L37.3544 63.8069L36.968 63.5468C36.6735 63.3485 36.336 63.2495 35.9985 63.2495C35.661 63.2495 35.3235 63.3485 35.029 63.5468L34.6426 63.8069L34.7707 63.3589C34.9656 62.6763 34.7303 61.9524 34.1714 61.5149L33.8046 61.2277L34.2699 61.211C34.9795 61.1857 35.5953 60.7384 35.8389 60.0714L35.9985 59.6335L36.1582 60.0712C36.4018 60.7382 37.0176 61.1855 37.7269 61.2109L38.1925 61.2276L37.8258 61.5147Z" fill="#474654"/>
<path d="M52.1346 59.1565L50.8987 59.1122L50.4745 57.9503C50.2216 57.2573 49.5814 56.8096 48.8436 56.8096C48.1059 56.8096 47.4657 57.2573 47.2126 57.9503L46.7885 59.1122L45.5525 59.1565C44.8152 59.1829 44.1916 59.6534 43.9636 60.3551C43.7357 61.0567 43.9637 61.8039 44.5447 62.2586L45.5185 63.0211L45.1787 64.2104C44.9761 64.9198 45.2309 65.6584 45.8277 66.0919C46.4244 66.5254 47.2052 66.5398 47.8177 66.1275L48.8437 65.4369L49.8697 66.1275C50.4819 66.5396 51.2629 66.5256 51.8598 66.0919C52.4567 65.6583 52.7113 64.9197 52.5088 64.2102L52.1691 63.021L53.1426 62.2588C53.7237 61.8041 53.9518 61.0569 53.7238 60.3551C53.4956 59.6534 52.8719 59.1829 52.1346 59.1565ZM50.6709 61.5147C50.1117 61.9524 49.8766 62.6763 50.0717 63.359L50.1996 63.8071L49.813 63.5469C49.5186 63.3486 49.1811 63.2496 48.8436 63.2496C48.5061 63.2496 48.1684 63.3488 47.874 63.5469L47.4875 63.8071L47.6156 63.359C47.8105 62.6764 47.5753 61.9525 47.0163 61.515L46.6495 61.2279L47.1149 61.2111C47.8245 61.1858 48.4403 60.7385 48.6838 60.0715L48.8436 59.6337L49.0033 60.0715C49.2469 60.7385 49.8627 61.1858 50.572 61.2111L51.0376 61.2279L50.6709 61.5147Z" fill="#474654"/>
<path d="M64.9798 59.1565L63.7439 59.1122L63.3198 57.9503C63.0668 57.2573 62.4266 56.8096 61.6888 56.8096C60.9509 56.8096 60.3109 57.2573 60.0578 57.9503L59.6337 59.1122L58.3977 59.1565C57.6604 59.1829 57.0368 59.6534 56.8088 60.3551C56.5809 61.0567 56.809 61.8039 57.3899 62.2586L58.3636 63.0211L58.0238 64.2104C57.8212 64.9198 58.076 65.6584 58.6728 66.0919C59.2695 66.5254 60.0502 66.5398 60.6628 66.1275L61.6888 65.4369L62.7148 66.1275C63.3269 66.5396 64.108 66.5256 64.7049 66.0919C65.3017 65.6583 65.5564 64.9197 65.3539 64.2102L65.0141 63.021L65.9877 62.2588C66.5688 61.8041 66.7969 61.0569 66.5689 60.3551C66.3409 59.6534 65.717 59.1829 64.9798 59.1565ZM63.5161 61.5147C62.9569 61.9524 62.7218 62.6763 62.9169 63.359L63.0448 63.8071L62.6583 63.5469C62.3638 63.3486 62.0263 63.2496 61.6888 63.2496C61.3513 63.2496 61.0136 63.3488 60.7192 63.5469L60.3327 63.8071L60.4609 63.359C60.6558 62.6764 60.4205 61.9525 59.8615 61.515L59.4948 61.2279L59.9601 61.2111C60.6697 61.1858 61.2855 60.7385 61.529 60.0715L61.6888 59.6337L61.8485 60.0715C62.0921 60.7385 62.7079 61.1858 63.4172 61.2111L63.8828 61.2279L63.5161 61.5147Z" fill="#474654"/>
</svg>
