<svg width="58" height="72" viewBox="0 0 58 72" fill="none" xmlns="http://www.w3.org/2000/svg">
<path d="M56.1579 29.5628C57.5847 27.3771 57.3212 24.5332 55.5171 22.6469C54.722 21.8155 54.3897 20.6475 54.6279 19.5222C55.1689 16.9686 53.8958 14.4119 51.5321 13.3048C50.4903 12.8168 49.7585 11.8476 49.5742 10.7122C49.1561 8.1357 47.0453 6.21153 44.4414 6.03294C43.2937 5.95419 42.2611 5.31491 41.6791 4.32266C40.3583 2.0714 37.6957 1.03964 35.2025 1.81364C34.1039 2.15479 32.9103 1.93148 32.009 1.21668C29.9642 -0.405561 27.1082 -0.405561 25.0636 1.21668C24.1624 1.93176 22.9685 2.15479 21.8701 1.81364C19.3774 1.0395 16.7141 2.07126 15.3935 4.32266C14.8115 5.31491 13.779 5.95419 12.6314 6.03294C10.0273 6.21153 7.91663 8.13584 7.49842 10.7122C7.3142 11.8476 6.58225 12.8168 5.54064 13.3048C3.17702 14.4121 1.90395 16.9688 2.44465 19.5222C2.68301 20.6475 2.35057 21.8157 1.55562 22.647C-0.248314 24.5334 -0.511985 27.3774 0.914792 29.5631C1.54352 30.5262 1.6556 31.7356 1.21446 32.798C0.213638 35.2086 0.99537 37.9557 3.11515 39.4784C4.04946 40.1496 4.59072 41.2368 4.56316 42.3867C4.50086 44.9959 6.22211 47.2752 8.74885 47.9294C9.49472 48.1225 10.1427 48.554 10.6071 49.1427L4.79589 63.1718C3.98153 65.1379 5.8247 67.1625 7.85715 66.5385L14.2193 64.5861C14.4052 64.5294 14.6057 64.6125 14.6967 64.7839L17.8148 70.6632C18.8122 72.5439 21.5467 72.4111 22.3601 70.4473L28.4169 55.825C28.4963 55.8224 28.5758 55.8224 28.6553 55.825L34.7121 70.4473C35.527 72.4142 38.2613 72.5412 39.2575 70.6633L42.3756 64.7839C42.4664 64.6124 42.6671 64.5293 42.853 64.5862L49.215 66.5387C51.2486 67.1629 53.0903 65.1369 52.2764 63.172L46.4651 49.1428C46.9294 48.5542 47.5774 48.1226 48.3233 47.9295C50.85 47.2755 52.5711 44.9962 52.509 42.3868C52.4814 41.2369 53.0228 40.1497 53.9571 39.4787C56.0771 37.9559 56.8585 35.2088 55.8577 32.7982C55.4172 31.7353 55.5293 30.526 56.1579 29.5628ZM20.4117 69.6399C20.2794 69.9594 19.8398 69.9789 19.6785 69.6747L16.5604 63.7955C15.9964 62.7319 14.7517 62.2167 13.601 62.5697L7.23882 64.5221C6.90878 64.6231 6.61276 64.2979 6.74495 63.9789L11.9005 51.5318C13.0638 53.1252 15.0083 54.0132 17.0554 53.7742C18.1978 53.641 19.3303 54.0795 20.0847 54.9477C21.1792 56.2077 22.7215 56.8765 24.2949 56.8763C24.7926 56.8763 25.2932 56.8067 25.784 56.6705L20.4117 69.6399ZM49.8342 64.522L43.4722 62.5695C42.3214 62.2166 41.0765 62.7319 40.5126 63.7953L37.3945 69.6746C37.2335 69.9785 36.7933 69.9588 36.6612 69.6397L31.29 56.6729C33.3317 57.2396 35.5478 56.6054 36.9882 54.9474C37.7426 54.079 38.8746 53.6403 40.0176 53.7739C42.0666 54.0134 44.0099 53.125 45.1725 51.5316L50.3283 63.9783C50.4608 64.2987 50.1631 64.6225 49.8342 64.522ZM54.3918 28.41C53.3818 29.9573 53.2018 31.8999 53.9103 33.6065C54.5333 35.1071 54.0469 36.8171 52.7271 37.7652C51.2264 38.8432 50.3567 40.5896 50.4009 42.4367C50.4397 44.0612 49.3681 45.4801 47.7951 45.8872C46.3238 46.2682 45.0882 47.2258 44.3473 48.5208C44.3453 48.5246 44.3432 48.5283 44.3412 48.532C44.1842 48.808 44.048 49.0985 43.9385 49.403C43.3879 50.9317 41.8772 51.8686 40.2624 51.6793C38.4274 51.4647 36.6079 52.1696 35.3961 53.5645C34.3306 54.791 32.5828 55.1177 31.1459 54.359C30.6572 54.1008 30.1397 53.9217 29.6112 53.818C29.6069 53.8171 29.6025 53.8161 29.5981 53.8152C28.8961 53.6792 28.1747 53.6794 27.4727 53.8158C27.4702 53.8163 27.4678 53.8169 27.4653 53.8173C26.9356 53.921 26.4171 54.1004 25.9273 54.359C24.4904 55.1178 22.7427 54.791 21.6772 53.5645C20.6087 52.3347 19.0684 51.6414 17.461 51.6414C17.2453 51.6414 17.028 51.654 16.8107 51.6794C15.1975 51.8683 13.6851 50.932 13.1345 49.4031C13.025 49.0989 12.8891 48.8088 12.7322 48.5329C12.7298 48.5284 12.7274 48.5242 12.725 48.5197C11.9839 47.2253 10.7488 46.268 9.27788 45.8872C7.70485 45.48 6.63343 44.0612 6.67225 42.4369C6.7164 40.5896 5.84678 38.8433 4.34603 37.7652C3.02641 36.8172 2.53971 35.1071 3.16282 33.6063C3.87129 31.8997 3.69129 29.9571 2.68132 28.4098C1.79327 27.0493 1.95724 25.2788 3.08041 24.1046C4.35742 22.7692 4.89138 20.8927 4.5086 19.0852C4.17194 17.4955 4.9645 15.9039 6.43586 15.2146C8.10915 14.4308 9.28477 12.8739 9.58093 11.05C9.84122 9.44604 11.1552 8.2482 12.7762 8.1371C14.6196 8.01068 16.2785 6.9837 17.2133 5.38972C18.0356 3.98826 19.6938 3.34616 21.245 3.82794C23.0097 4.37596 24.9274 4.01751 26.375 2.86902C27.6477 1.85906 29.4257 1.85906 30.6988 2.86902C32.1463 4.01736 34.0637 4.3761 35.8287 3.82794C37.3804 3.34602 39.0384 3.9884 39.8604 5.38972C40.7952 6.98356 42.454 8.01054 44.2975 8.1371C45.9185 8.24834 47.2325 9.44618 47.4928 11.05C47.7889 12.8739 48.9647 14.4308 50.6378 15.2147C52.1093 15.9039 52.9018 17.4955 52.5651 19.0852C52.1823 20.8927 52.7161 22.7692 53.9933 24.1046C55.1159 25.2788 55.2799 27.0493 54.3918 28.41Z" fill="#474654"/>
<path d="M8.56074 27.018C9.13829 27.089 9.66521 26.6781 9.73622 26.1001C10.9009 16.634 18.9833 9.4957 28.5363 9.4957C38.094 9.4957 46.1767 16.6377 47.3376 26.109C47.4031 26.6435 47.8579 27.0354 48.383 27.0354C48.4259 27.0354 48.469 27.0327 48.5126 27.0274C49.0907 26.9565 49.5019 26.4304 49.4312 25.8523C48.1408 15.325 39.158 7.38647 28.5363 7.38647C17.9196 7.38647 8.93734 15.3208 7.64274 25.8425C7.57173 26.4206 7.98263 26.9468 8.56074 27.018Z" fill="#474654"/>
<path d="M48.5128 29.8489C47.9364 29.7786 47.4086 30.1894 47.3378 30.7675C46.1773 40.2391 38.0945 47.3816 28.5364 47.3816C18.9826 47.3816 10.9002 40.2426 9.73601 30.7758C9.66499 30.1978 9.13905 29.787 8.56052 29.8578C7.98256 29.9288 7.57137 30.4551 7.64253 31.0332C8.93655 41.5558 17.9188 49.4906 28.5363 49.4906C39.1585 49.4906 48.1413 41.5517 49.4311 31.0238C49.5021 30.4459 49.0909 29.9198 48.5128 29.8489Z" fill="#474654"/>
<path d="M43.4285 24.0863C43.1604 23.2614 42.4272 22.7081 41.5603 22.6771L33.2914 22.3805L30.454 14.6079C30.1566 13.7931 29.404 13.2666 28.5366 13.2666C27.6692 13.2666 26.9166 13.7931 26.6192 14.6079L23.7818 22.3805L15.5129 22.6771C14.6461 22.7081 13.9128 23.2614 13.6447 24.0863C13.3767 24.9112 13.6447 25.7898 14.3277 26.3244L20.843 31.4248L18.57 39.3807C18.3316 40.2148 18.6311 41.0831 19.333 41.593C20.034 42.1024 20.9524 42.1198 21.6726 41.6349L28.5365 37.0144L35.4005 41.6347C36.1198 42.119 37.0382 42.1027 37.7401 41.5928C38.4419 41.083 38.7413 40.2146 38.5029 39.3805L36.2299 31.4246L42.7452 26.3243C43.4283 25.7896 43.6965 24.9112 43.4285 24.0863ZM34.894 29.792C34.2365 30.3067 33.9599 31.1579 34.1894 31.9603L36.4239 39.7811L29.6765 35.2393C29.3301 35.0062 28.9333 34.8896 28.5365 34.8896C28.1396 34.8896 27.7428 35.0062 27.3966 35.2392L20.649 39.781L22.8835 31.9603C23.1128 31.1576 22.8364 30.3067 22.1791 29.792L15.7742 24.7781L23.903 24.4865C24.7372 24.4565 25.4611 23.9304 25.7473 23.1465L28.5366 15.5058L31.3259 23.1465C31.6122 23.9304 32.336 24.4565 33.1702 24.4863L41.2987 24.778L34.894 29.792Z" fill="#474654"/>
</svg>
