<svg width="72" height="72" viewBox="0 0 72 72" fill="none" xmlns="http://www.w3.org/2000/svg">
<path d="M24.8945 5.62529C28.1556 3.32522 31.9964 2.10938 36.0018 2.10938C46.6405 2.10938 55.2957 10.7646 55.2957 21.4033C55.2957 25.8265 53.8398 29.9869 51.0855 33.4352C50.722 33.8902 50.7963 34.554 51.2515 34.9175C51.4458 35.0727 51.6781 35.1483 51.9091 35.1483C52.2187 35.1483 52.5256 35.0126 52.734 34.7517C55.7899 30.9258 57.4052 26.31 57.4052 21.4034C57.4052 9.6016 47.8036 0 36.002 0C31.5588 0 27.2976 1.34916 23.6788 3.9015C23.2028 4.23732 23.0891 4.8953 23.4249 5.37132C23.7604 5.84733 24.4187 5.96096 24.8945 5.62529Z" fill="#474654"/>
<path d="M36.0018 42.8067C40.7452 42.8067 45.2389 41.2869 48.9968 38.4117C49.4594 38.0577 49.5475 37.3956 49.1934 36.933C48.8396 36.4705 48.178 36.3821 47.7149 36.7362C44.3282 39.3275 40.2779 40.6972 36.0018 40.6972C25.3631 40.6972 16.7079 32.042 16.7079 21.4033C16.7079 16.7671 18.3764 12.2855 21.4062 8.78448C21.7874 8.34404 21.7393 7.6779 21.2988 7.29666C20.8583 6.91557 20.1922 6.96366 19.8109 7.4041C16.4496 11.2884 14.5984 16.2601 14.5984 21.4033C14.5985 33.2053 24.2 42.8067 36.0018 42.8067Z" fill="#474654"/>
<path d="M25.1724 26.7102L29.4291 30.9669C30.0415 31.5792 31.038 31.5792 31.6505 30.9668L39.7603 22.8571L41.8724 24.9693C42.8302 25.9276 44.4791 25.2985 44.5519 23.943L45.1604 12.6322C45.1844 12.1874 45.0177 11.7516 44.7028 11.4368C44.3879 11.1219 43.9526 10.9553 43.5074 10.9787L32.1963 11.5872C30.8432 11.6599 30.2098 13.3067 31.1698 14.2667L33.2819 16.379L25.1725 24.4886C24.5587 25.1021 24.5581 26.0962 25.1724 26.7102ZM35.1542 17.4898C35.4511 17.1931 35.6145 16.7987 35.6145 16.3789C35.6145 15.9593 35.4511 15.5648 35.1544 15.2681L33.5151 13.6288L43.0216 13.1174L42.5102 22.6239L40.8709 20.9845C40.2584 20.3722 39.262 20.3722 38.6492 20.9846L30.5396 29.0944L27.0447 25.5994L35.1542 17.4898Z" fill="#474654"/>
<path d="M71.202 50.9042C69.8257 48.8814 67.4887 48.3881 64.9502 49.5832L46.6529 57.6396L46.6645 56.0567C46.6822 53.6485 44.4762 50.3944 40.8412 49.8803C40.8322 49.879 40.823 49.8778 40.814 49.8768L28.7695 48.4899C26.2017 48.1243 24.9514 47.2737 22.5709 45.8815C19.1374 43.8729 15.2248 42.8035 11.2485 42.7818V42.0902C11.2485 40.3669 9.84643 38.9648 8.12307 38.9648H3.12539C1.40203 38.9648 0 40.3667 0 42.0901V67.4447C0 69.168 1.40203 70.5701 3.12539 70.5701H8.12293C9.84629 70.5701 11.2483 69.168 11.2483 67.4447V67.0855L22.1957 71.1603C23.6569 71.7042 25.1883 71.98 26.7475 71.98H42.9911C45.4679 71.98 47.883 71.2792 49.9752 69.9534L70.3137 57.0658C70.3616 57.0355 70.407 57.0013 70.4495 56.9635C72.1822 55.425 72.5057 52.8199 71.202 50.9042ZM69.1061 55.3339L48.846 68.1718C47.0921 69.2833 45.0674 69.8707 42.9909 69.8707H26.7473C25.4403 69.8707 24.1564 69.6395 22.9315 69.1836L11.2482 64.8349V53.0937C11.2482 52.5113 10.776 52.039 10.1935 52.039C9.61102 52.039 9.1388 52.5113 9.1388 53.0937V67.4449C9.1388 68.005 8.68304 68.4608 8.12293 68.4608H3.12539C2.56528 68.4608 2.10952 68.005 2.10952 67.4449V42.0901C2.10952 41.53 2.56528 41.0742 3.12539 41.0742H8.12293C8.68304 41.0742 9.1388 41.53 9.1388 42.0901V48.1627C9.1388 48.7452 9.61102 49.2174 10.1935 49.2174C10.776 49.2174 11.2482 48.7452 11.2482 48.1627V44.8912C14.8507 44.9129 18.3949 45.8826 21.5055 47.7023C23.9998 49.1613 25.5088 50.159 28.487 50.5805C28.496 50.5817 28.505 50.5829 28.5141 50.5839L40.5584 51.9706C42.6835 52.277 44.3188 53.9695 44.5545 56.1002L44.5392 58.2067H33.2737C32.6913 58.2067 32.219 58.6789 32.219 59.2614C32.219 59.8439 32.6913 60.3161 33.2737 60.3161H45.5863C45.7197 60.3161 45.872 60.2873 46.0073 60.2282C46.0086 60.2276 46.01 60.2274 46.0113 60.2268L65.8127 51.508C65.8214 51.5042 65.83 51.5003 65.8386 51.4962C66.9482 50.9716 68.4765 50.6488 69.4581 52.0908C70.1524 53.1113 69.998 54.4911 69.1061 55.3339Z" fill="#474654"/>
</svg>
