<svg width="96" height="37" viewBox="0 0 96 37" fill="none" xmlns="http://www.w3.org/2000/svg">
<g opacity="0.25" clip-path="url(#clip0_35_420)">
<path d="M64.0473 24.3079V27.4259H53.2656V6.52637H64.0473V9.63107H57.6788H56.6788V10.6311V13.89V14.89H57.6788H64.0473V17.8001H57.6788H56.6788V18.8001V23.3079V24.3079H57.6788H64.0473ZM71.2498 27.4259H67.2834L72.2935 21.8247L72.8899 21.158L72.2935 20.4913L67.2834 14.89H71.4661L74.3904 18.0946L75.1432 18.9195L75.8803 18.0805L78.6834 14.89H82.6157L77.6343 20.4612L77.0367 21.1296L77.6362 21.7964L82.698 27.4259H78.4986L75.6052 24.1987L74.8571 23.3643L74.113 24.2022L71.2498 27.4259Z" stroke="#474654" stroke-width="2"/>
<path fill-rule="evenodd" clip-rule="evenodd" d="M48.4719 5.52637V14.8981H48.4081C47.167 13.5334 45.6167 13.0593 43.8177 13.0593C40.1011 13.0593 37.3392 15.5074 36.3876 18.7154C35.2931 15.178 32.4328 12.9934 28.15 12.9934C24.6727 12.9934 21.9642 14.5177 20.5495 16.9648V13.8896H13.4147V10.6306H21.2017V5.52637H7.05273V28.4259H13.4147V18.8001H19.7912C19.599 19.5124 19.4648 20.2569 19.4648 21.0639C19.4648 25.8406 23.2793 29.1933 28.15 29.1933C32.2463 29.1933 34.945 27.354 36.3731 24.0019H30.9218C30.1847 25.0109 29.6242 25.3081 28.1495 25.3081C26.4406 25.3081 24.967 23.883 24.967 22.1913H36.0976C36.5819 25.9823 39.6401 29.2576 43.8793 29.2576C45.7094 29.2576 47.3851 28.3987 48.4081 26.9443H48.4719V28.4264H54.0776V5.52637H48.4719ZM25.1446 18.8684C25.4974 17.4136 26.6768 16.4639 28.1495 16.4639C29.7718 16.4639 30.8912 17.3858 31.1854 18.8684H25.1446ZM45.0676 24.9401C43.0008 24.9401 41.7167 23.0973 41.7167 21.1758C41.7167 19.1201 42.833 17.1436 45.0676 17.1436C47.3851 17.1436 48.3066 19.1201 48.3066 21.1758C48.3066 23.1246 47.3286 24.9401 45.0676 24.9401Z" fill="#474654"/>
</g>
<defs>
<clipPath id="clip0_35_420">
<rect width="96" height="37" fill="white"/>
</clipPath>
</defs>
</svg>
