<svg width="103" height="35" viewBox="0 0 103 35" fill="none" xmlns="http://www.w3.org/2000/svg">
<g opacity="0.25">
<path d="M43.8318 17.9488C43.8318 22.8069 40.0488 26.3868 35.4063 26.3868C30.7637 26.3868 26.9807 22.8069 26.9807 17.9488C26.9807 13.0564 30.7637 9.51074 35.4063 9.51074C40.0488 9.51074 43.8318 13.0564 43.8318 17.9488ZM40.1435 17.9488C40.1435 14.9129 37.951 12.8357 35.4063 12.8357C32.8616 12.8357 30.669 14.9129 30.669 17.9488C30.669 20.9542 32.8616 23.0618 35.4063 23.0618C37.951 23.0618 40.1435 20.9504 40.1435 17.9488Z" fill="#474654"/>
<path d="M62.0083 17.9488C62.0083 22.8069 58.2254 26.3868 53.5828 26.3868C48.9402 26.3868 45.1572 22.8069 45.1572 17.9488C45.1572 13.0602 48.9402 9.51074 53.5828 9.51074C58.2254 9.51074 62.0083 13.0564 62.0083 17.9488ZM58.32 17.9488C58.32 14.9129 56.1275 12.8357 53.5828 12.8357C51.0381 12.8357 48.8455 14.9129 48.8455 17.9488C48.8455 20.9542 51.0381 23.0618 53.5828 23.0618C56.1275 23.0618 58.32 20.9504 58.32 17.9488Z" fill="#474654"/>
<path d="M79.4273 10.0205V25.1694C79.4273 31.401 75.7692 33.9461 71.4448 33.9461C67.374 33.9461 64.9239 31.2107 64 28.9738L67.2112 27.6309C67.783 29.0042 69.1841 30.6249 71.441 30.6249C74.2091 30.6249 75.9245 28.9091 75.9245 25.6792V24.4656H75.7958C74.9702 25.489 73.3798 26.383 71.3728 26.383C67.1733 26.383 63.3259 22.708 63.3259 17.9792C63.3259 13.2162 67.1733 9.51074 71.3728 9.51074C73.376 9.51074 74.9665 10.4048 75.7958 11.3977H75.9245V10.0243H79.4273V10.0205ZM76.1858 17.9792C76.1858 15.008 74.2129 12.8357 71.7023 12.8357C69.1576 12.8357 67.0256 15.008 67.0256 17.9792C67.0256 20.92 69.1576 23.0618 71.7023 23.0618C74.2129 23.0618 76.1858 20.92 76.1858 17.9792Z" fill="#474654"/>
<path d="M85.2022 1.14111V25.8694H81.6047V1.14111H85.2022Z" fill="#474654"/>
<path d="M99.2208 20.7263L102.084 22.6437C101.16 24.0171 98.933 26.3834 95.0857 26.3834C90.3143 26.3834 86.751 22.678 86.751 17.9454C86.751 12.9274 90.3446 9.50732 94.6729 9.50732C99.0315 9.50732 101.163 12.9921 101.86 14.8753L102.243 15.834L91.0149 20.5057C91.8745 22.1986 93.2112 23.0622 95.0857 23.0622C96.9639 23.0622 98.2665 22.134 99.2208 20.7263ZM90.409 17.6905L97.9144 14.5595C97.5016 13.5057 96.2595 12.7715 94.7979 12.7715C92.9234 12.7715 90.3143 14.434 90.409 17.6905Z" fill="#474654"/>
<path d="M13.3634 15.7537V12.1738H25.3712C25.4886 12.7977 25.5492 13.5358 25.5492 14.3347C25.5492 17.0206 24.8184 20.3418 22.463 22.7081C20.172 25.1048 17.2448 26.3831 13.3672 26.3831C6.17991 26.3831 0.13623 20.5015 0.13623 13.2809C0.13623 6.06023 6.17991 0.178711 13.3672 0.178711C17.3433 0.178711 20.1758 1.7461 22.304 3.78904L19.7895 6.31513C18.2635 4.87708 16.1959 3.7586 13.3634 3.7586C8.11494 3.7586 4.01009 8.00806 4.01009 13.2809C4.01009 18.5537 8.11494 22.8032 13.3634 22.8032C16.7677 22.8032 18.7065 21.4298 19.9486 20.182C20.9559 19.17 21.6185 17.7244 21.8798 15.7499L13.3634 15.7537Z" fill="#474654"/>
</g>
</svg>
