<svg width="24" height="24" viewBox="0 0 24 24" fill="none" xmlns="http://www.w3.org/2000/svg">
<g clip-path="url(#clip0_30_1085)">
<path d="M12.131 5.72948C16.175 5.76916 18.7084 5.51755 19.0505 9.99984H23.9819C23.9819 3.05607 17.926 2.12012 12.0027 2.12012C6.07887 2.12012 0.0234375 3.05607 0.0234375 9.99984H4.91652C5.2951 5.43212 8.12069 5.69027 12.131 5.72948Z" fill="#E93F4A"/>
<path d="M2.46988 12.2321C3.67098 12.2321 4.67041 12.304 4.89262 11.1225C4.92249 10.9619 4.93976 10.7799 4.93976 10.5693H4.88281H0C0 12.3269 1.10587 12.2321 2.46988 12.2321Z" fill="#E93F4A"/>
<path d="M19.0833 10.5693H19.0371C19.0371 10.7813 19.0553 10.9638 19.0894 11.1225C19.3237 12.212 20.3218 12.1443 21.5187 12.1443C22.8892 12.1443 24.0002 12.2344 24.0002 10.5693H19.0833Z" fill="#E93F4A"/>
<path d="M16.6741 9.37253V8.67419C16.6741 8.36189 16.3142 8.34229 15.8698 8.34229H15.1439C14.7 8.34229 14.3401 8.36189 14.3401 8.67419V9.2759V9.74271H9.20517V9.2759V8.67419C9.20517 8.36189 8.84526 8.34229 8.40133 8.34229H7.67497C7.23104 8.34229 6.87113 8.36189 6.87113 8.67419V9.37253V9.98218C5.70131 11.1977 1.87348 16.3723 1.73438 16.9988L1.73624 21.179C1.73624 21.5651 2.0504 21.8792 2.43645 21.8792H21.1088C21.4948 21.8792 21.809 21.5651 21.809 21.179V16.9778C21.6713 16.3695 17.8444 11.1973 16.6741 9.98171V9.37253ZM8.95216 17.5613C8.57638 17.5613 8.27156 17.2569 8.27156 16.8807C8.27156 16.5044 8.57638 16.2001 8.95216 16.2001C9.32794 16.2001 9.63277 16.5044 9.63277 16.8807C9.63277 17.2569 9.32794 17.5613 8.95216 17.5613ZM8.95216 15.2272C8.57638 15.2272 8.27156 14.9229 8.27156 14.5466C8.27156 14.1704 8.57638 13.866 8.95216 13.866C9.32794 13.866 9.63277 14.1704 9.63277 14.5466C9.63277 14.9229 9.32794 15.2272 8.95216 15.2272ZM8.95216 12.8937C8.57638 12.8937 8.27156 12.5893 8.27156 12.2131C8.27156 11.8373 8.57638 11.5325 8.95216 11.5325C9.32794 11.5325 9.63277 11.8373 9.63277 12.2131C9.63277 12.5893 9.32794 12.8937 8.95216 12.8937ZM11.753 17.5613C11.3772 17.5613 11.0724 17.2569 11.0724 16.8807C11.0724 16.5044 11.3772 16.2001 11.753 16.2001C12.1293 16.2001 12.4336 16.5044 12.4336 16.8807C12.4336 17.2569 12.1293 17.5613 11.753 17.5613ZM11.753 15.2272C11.3772 15.2272 11.0724 14.9229 11.0724 14.5466C11.0724 14.1704 11.3772 13.866 11.753 13.866C12.1293 13.866 12.4336 14.1704 12.4336 14.5466C12.4336 14.9229 12.1293 15.2272 11.753 15.2272ZM11.753 12.8937C11.3772 12.8937 11.0724 12.5893 11.0724 12.2131C11.0724 11.8373 11.3772 11.5325 11.753 11.5325C12.1293 11.5325 12.4336 11.8373 12.4336 12.2131C12.4336 12.5893 12.1293 12.8937 11.753 12.8937ZM14.5539 17.5613C14.1776 17.5613 13.8733 17.2569 13.8733 16.8807C13.8733 16.5044 14.1776 16.2001 14.5539 16.2001C14.9301 16.2001 15.2345 16.5044 15.2345 16.8807C15.2345 17.2569 14.9301 17.5613 14.5539 17.5613ZM14.5539 15.2272C14.1776 15.2272 13.8733 14.9229 13.8733 14.5466C13.8733 14.1704 14.1776 13.866 14.5539 13.866C14.9301 13.866 15.2345 14.1704 15.2345 14.5466C15.2345 14.9229 14.9301 15.2272 14.5539 15.2272ZM14.5539 12.8937C14.1776 12.8937 13.8733 12.5893 13.8733 12.2131C13.8733 11.8373 14.1776 11.5325 14.5539 11.5325C14.9301 11.5325 15.2345 11.8373 15.2345 12.2131C15.2345 12.5893 14.9301 12.8937 14.5539 12.8937Z" fill="#E93F4A"/>
</g>
<defs>
<clipPath id="clip0_30_1085">
<rect width="24" height="24" fill="white"/>
</clipPath>
</defs>
</svg>
