<svg width="58" height="58" viewBox="0 0 58 58" fill="none" xmlns="http://www.w3.org/2000/svg">
<g clip-path="url(#clip0_35_72)">
<path d="M10.3957 23.7067C10.2059 23.3258 9.90555 23.0117 9.53276 22.7759C9.14386 22.5377 8.68477 22.3709 8.1601 22.2719C7.62623 22.1753 7.00952 22.1315 6.295 22.1246L2.99626 22.1269C2.65339 22.1315 2.31742 22.3985 2.23688 22.7298L0.0173923 32.3971C-0.0631489 32.7238 0.152011 32.9977 0.494886 32.9977H2.07464C2.41752 32.9977 2.75694 32.7319 2.83288 32.3971L3.37481 30.0499C3.4473 29.7231 3.78557 29.4504 4.1319 29.4504H4.58408C6.51591 29.4481 8.01168 29.0535 9.08633 28.263C10.1667 27.4714 10.6995 26.4255 10.6995 25.13C10.6983 24.5627 10.6051 24.0864 10.3957 23.7067ZM6.98881 26.8651C6.51131 27.2148 5.84742 27.3897 4.99138 27.3897H4.60479C4.26076 27.3897 4.0502 27.1182 4.12499 26.7868L4.60018 24.7342C4.66692 24.4051 5.01325 24.1324 5.35267 24.1347L5.87043 24.1313C6.47449 24.1313 6.93588 24.236 7.24424 24.4385C7.54914 24.6387 7.70217 24.9574 7.69987 25.3796C7.70907 26.0217 7.464 26.5153 6.98881 26.8651Z" fill="white"/>
<path d="M55.4296 22.8817L55.3306 22.9116L55.1983 22.93L55.0361 22.9047L54.9533 22.8242L54.9153 22.6976L54.913 22.5078V21.8048H55.4411V21.5873H54.913V21.1489H54.6518V21.5873H54.4746V21.8048H54.6518V22.6228L54.7738 23.0278L55.1327 23.1567L55.2835 23.144L55.4434 23.113V22.8817H55.4296Z" fill="white"/>
<path d="M57.8792 21.6989L57.5018 21.5436L57.2234 21.6L56.9403 21.791L56.7758 21.608L56.5089 21.5447L56.2523 21.6011L56.0095 21.7576V21.5873H55.7529V23.1233H56.0084V21.9762L56.2235 21.8427L56.4375 21.7898L56.6124 21.8209L56.6987 21.9095L56.7367 22.0567L56.7493 22.2466V23.1245H57.0059V22.1419L57.0013 22.0602L56.9967 21.9854L57.2153 21.8462L57.4316 21.7921L57.6008 21.8232L57.6928 21.9118L57.725 22.0602L57.7423 22.2477V23.1256H58V22.1281L57.8792 21.6989Z" fill="white"/>
<path d="M18.0135 25.0887C17.4175 24.7527 16.4764 24.5847 15.19 24.5847C14.5537 24.5847 13.9198 24.6342 13.2789 24.7331C12.806 24.8056 12.76 24.8194 12.4689 24.8827C11.8683 25.0139 11.7739 25.6133 11.7739 25.6133L11.5806 26.4084C11.4713 26.9158 11.7636 26.8962 11.8855 26.8537C12.1478 26.7754 12.294 26.6949 12.8301 26.5752C13.3422 26.459 13.8818 26.3716 14.3098 26.3773C14.9415 26.3773 15.4247 26.4441 15.7469 26.5798C16.0645 26.7179 16.2232 26.9549 16.2232 27.2978L16.1956 27.521L15.9678 27.6614C15.0715 27.7178 14.4237 27.8006 13.6379 27.9145C12.8693 28.0215 12.195 28.2091 11.6347 28.4657C11.0329 28.7303 10.5865 29.0858 10.2747 29.538C9.97324 29.9925 9.82251 30.5436 9.82251 31.1902C9.82251 31.7989 10.0411 32.3017 10.4657 32.6906C10.8926 33.0726 11.4563 33.259 12.1306 33.259C12.5575 33.2567 12.8877 33.2233 13.1224 33.167L13.8875 32.9035L14.5353 32.5445L15.1313 32.151L15.1394 32.1625L15.0795 32.4156L15.0761 32.426V32.4283C15.0117 32.7366 15.1981 32.9898 15.4984 33.0197L15.5041 33.0266H15.5317H16.7433H16.9711L16.9918 33.0174C17.3071 32.9806 17.6028 32.7274 17.6718 32.426L18.8236 27.4405L18.8834 27.0343L18.911 26.6535C18.9156 25.947 18.6107 25.4235 18.0135 25.0887ZM15.4661 30.6943L15.2199 31.0188L14.5986 31.3398C14.3064 31.4583 14.0291 31.5182 13.7725 31.5182C13.3836 31.5182 13.0787 31.4618 12.8727 31.3467L12.5678 30.7542C12.5678 30.4332 12.6415 30.1789 12.7991 29.9833L13.4687 29.5276C13.7552 29.431 14.105 29.3493 14.51 29.2929C14.8713 29.2481 15.5847 29.1664 15.6779 29.1641L15.7872 29.3562C15.7653 29.4655 15.5628 30.3123 15.4661 30.6943Z" fill="white"/>
<path d="M46.7069 25.0956C46.1075 24.7596 45.1674 24.5905 43.8845 24.5905C43.2482 24.5905 42.6131 24.6399 41.9745 24.7423C41.5005 24.8114 41.4533 24.8263 41.1611 24.8885C40.5616 25.0185 40.4684 25.6202 40.4684 25.6202L40.2751 26.4141C40.167 26.9215 40.4523 26.8985 40.5858 26.8594C40.8493 26.7812 40.9908 26.7041 41.5224 26.5798C42.0321 26.4648 42.5763 26.3796 43.0055 26.3819C43.6348 26.3819 44.1181 26.4498 44.4391 26.5856C44.759 26.7236 44.9154 26.963 44.9154 27.3024L44.8913 27.5245L44.6658 27.6683C43.7603 27.7224 43.1113 27.8052 42.3335 27.9191C41.5672 28.0261 40.8907 28.2125 40.3292 28.4702C39.7297 28.736 39.2776 29.0916 38.9692 29.5449C38.6643 29.9994 38.5159 30.5494 38.5159 31.1902C38.5159 31.8035 38.7322 32.3063 39.1625 32.6929C39.5917 33.0737 40.1497 33.2647 40.824 33.2647C41.2485 33.2601 41.5787 33.2325 41.8146 33.1715L42.5774 32.9115L43.231 32.5525L43.8224 32.1544L43.8327 32.1671L43.7787 32.4225L43.7729 32.4271L43.7752 32.4317C43.7039 32.7401 43.8914 32.9955 44.1952 33.0231L44.1975 33.0289H44.2251C44.4241 33.0289 45.1122 33.0289 45.4401 33.0289H45.6633L45.6875 33.0208C45.9993 32.9828 46.2938 32.7297 46.3594 32.4248L47.5146 27.4462L47.5756 27.0378L47.609 26.6558C47.6101 25.9516 47.3087 25.4304 46.7069 25.0956ZM44.1653 30.7012L43.9087 31.0291L43.2931 31.3479C43.0009 31.4652 42.7224 31.5262 42.4704 31.5262C42.0689 31.5262 41.772 31.4687 41.5718 31.3536L41.2635 30.7634C41.2635 30.4412 41.3383 30.1892 41.489 29.9902C41.642 29.8026 41.8756 29.6484 42.1655 29.5357C42.4486 29.439 42.7984 29.3608 43.2057 29.3021C43.5647 29.2572 44.2757 29.1732 44.3678 29.1721L44.4794 29.3642C44.4633 29.4736 44.2596 30.3169 44.1653 30.7012Z" fill="white"/>
<path d="M39.0843 23.7423C38.8864 23.3591 38.5896 23.0496 38.2145 22.808C37.8302 22.5687 37.3745 22.4007 36.8418 22.304C36.3183 22.2108 35.6935 22.1602 34.9836 22.1591L31.6803 22.1614C31.3362 22.1671 31.006 22.434 30.9266 22.762L28.7048 32.4338C28.6243 32.7617 28.8452 33.0333 29.1812 33.0333L30.7632 33.031C31.0992 33.0333 31.4432 32.764 31.5226 32.4327L32.0577 30.0843C32.1359 29.7575 32.4753 29.4825 32.817 29.4848H33.2692C35.2034 29.4848 36.7026 29.0867 37.7818 28.2986C38.8484 27.5012 39.3881 26.4577 39.3881 25.1609C39.3823 24.596 39.2845 24.1185 39.0843 23.7423ZM35.6774 26.9052C35.2011 27.2481 34.536 27.423 33.6846 27.423H33.2911C32.9517 27.4264 32.7319 27.1503 32.8078 26.8212L33.2865 24.772C33.3567 24.4441 33.6996 24.1691 34.0413 24.1726L34.5533 24.1691C35.1608 24.1726 35.6164 24.2727 35.9271 24.4752C36.2366 24.6777 36.3827 24.9953 36.3862 25.4164C36.3896 26.0584 36.1515 26.5532 35.6774 26.9052Z" fill="white"/>
<path d="M52.6302 22.8391C52.7027 22.5089 52.4956 22.2408 52.1562 22.2454H50.741C50.451 22.2454 50.1898 22.4606 50.0621 22.7252L49.9839 22.8472L49.9125 23.1601L47.9347 32.1508L47.8702 32.427L47.8725 32.4339C47.807 32.7296 47.9888 32.9528 48.2695 32.9954L48.2937 33.0287H49.763C50.0506 33.0287 50.321 32.8101 50.4441 32.5409L50.52 32.4258L52.6348 22.8403L52.6302 22.8391Z" fill="white"/>
<path d="M28.7486 24.7053C28.3746 24.7099 26.8547 24.7053 26.8547 24.7053C26.5141 24.7053 26.0769 24.9803 25.8606 25.3082C25.8606 25.3082 23.5985 29.1903 23.3788 29.5804L23.1164 29.5769L22.4123 25.3347C22.334 25.001 21.9854 24.7157 21.5516 24.7157L20.1364 24.718C19.7958 24.718 19.5864 24.9895 19.6635 25.3209C19.6635 25.3209 20.7382 31.4363 20.9533 32.8757C21.0534 33.6696 20.9407 33.8111 20.9407 33.8111L19.5415 36.248C19.3344 36.5794 19.446 36.8498 19.7855 36.8498L21.4216 36.8475C21.7622 36.8475 22.2098 36.5794 22.4123 36.2469L28.706 25.6016C28.706 25.6028 29.3112 24.6927 28.7486 24.7053Z" fill="white"/>
</g>
<defs>
<clipPath id="clip0_35_72">
<rect width="58" height="58" fill="white"/>
</clipPath>
</defs>
</svg>
