<svg width="18" height="18" viewBox="0 0 18 18" fill="none" xmlns="http://www.w3.org/2000/svg">
<path d="M15.282 9.42189H12.001C11.6127 9.42189 11.2979 9.7367 11.2979 10.125V11.5856C8.42127 11.2612 6.13096 8.97067 5.80659 6.09376H7.26707C7.65538 6.09376 7.97015 5.77895 7.97015 5.39063V2.10938C7.97015 0.946267 7.02398 0 5.86096 0H1.72087C1.44566 0 1.19577 0.160547 1.0814 0.41086C-0.924476 4.80076 -0.154085 10.2144 3.51159 13.8806C7.24213 17.6116 12.681 18.2761 16.9804 16.3113C17.2306 16.1969 17.3912 15.9469 17.3912 15.6717V11.5313C17.3912 10.3682 16.445 9.42189 15.282 9.42189ZM15.9851 15.2097C12.2848 16.7164 7.69021 16.0708 4.50595 12.8862C1.35407 9.73398 0.656712 5.15513 2.18291 1.40625H5.86101C6.24871 1.40625 6.56409 1.72167 6.56409 2.10938V4.68751H5.06423C4.67592 4.68751 4.36115 5.00232 4.36115 5.39063C4.36115 9.60372 7.78842 13.0313 12.0011 13.0313C12.3894 13.0313 12.7042 12.7165 12.7042 12.3281V10.8281H15.282C15.6697 10.8281 15.9851 11.1436 15.9851 11.5313V15.2097Z" fill="#E93F4A"/>
</svg>
