<svg width="72" height="72" viewBox="0 0 72 72" fill="none" xmlns="http://www.w3.org/2000/svg">
<path d="M63.3955 27.3809H45.2096C44.6271 27.3809 44.155 27.8531 44.155 28.4354C44.155 29.0177 44.6273 29.49 45.2096 29.49H63.3956C63.9781 29.49 64.4502 29.0177 64.4502 28.4354C64.4502 27.8531 63.978 27.3809 63.3955 27.3809Z" fill="#474654"/>
<path d="M63.3955 33.7393H45.2096C44.6271 33.7393 44.155 34.2115 44.155 34.7938C44.155 35.3761 44.6273 35.8484 45.2096 35.8484H63.3956C63.9781 35.8484 64.4502 35.3761 64.4502 34.7938C64.4502 34.2115 63.978 33.7393 63.3955 33.7393Z" fill="#474654"/>
<path d="M64.4502 41.1517C64.4502 40.5692 63.978 40.0972 63.3956 40.0972H45.2096C44.6271 40.0972 44.155 40.5694 44.155 41.1517C44.155 41.734 44.6273 42.2063 45.2096 42.2063H63.3956C63.978 42.2064 64.4502 41.7342 64.4502 41.1517Z" fill="#474654"/>
<path d="M45.2096 46.4551C44.6271 46.4551 44.155 46.9273 44.155 47.5096C44.155 48.092 44.6273 48.5642 45.2096 48.5642H54.3025C54.885 48.5642 55.3571 48.092 55.3571 47.5096C55.3571 46.9273 54.8849 46.4551 54.3025 46.4551H45.2096Z" fill="#474654"/>
<path d="M69.765 12.4019L58.8918 1.52859C57.9257 0.561797 56.602 0 55.2018 0H19.4213C16.5441 0 14.2034 2.34084 14.2034 5.21803V16.0154C14.2034 16.5978 14.6756 17.0699 15.258 17.0699C15.8403 17.0699 16.3125 16.5977 16.3125 16.0154V5.21803C16.3125 3.50381 17.7071 2.10923 19.4213 2.10923H55.2018C55.4293 2.10923 55.653 2.13356 55.8717 2.1818V11.7859C55.8717 13.7907 57.5027 15.4216 59.5074 15.4216H69.1104C69.1591 15.6417 69.184 15.8671 69.184 16.0916V66.7821C69.184 68.4962 67.7894 69.8909 66.0752 69.8909H51.9075C53.1406 68.0472 52.9443 65.5238 51.3176 63.897L41.7291 54.3085C41.0307 53.6102 40.0141 53.4226 39.1421 53.7407L37.0778 51.6763C42.9019 43.5887 42.0431 32.3986 34.9204 25.2758C27.0155 17.371 14.0456 17.2135 5.98345 25.2758C-1.99448 33.2537 -1.99448 46.2348 5.98345 54.2128C13.0999 61.3294 24.3007 62.1752 32.3833 56.3694L34.4483 58.4345C34.1302 59.3065 34.3178 60.3231 35.0163 61.0214L43.8858 69.8909H19.4213C17.7072 69.8909 16.3125 68.4963 16.3125 66.7821V63.4022C16.3125 62.8197 15.8403 62.3476 15.258 62.3476C14.6756 62.3476 14.2034 62.8199 14.2034 63.4022V66.7821C14.2034 69.6593 16.5442 72 19.4213 72H66.0753C68.9525 72 71.2934 69.6592 71.2934 66.7821V16.0916C71.2934 14.723 70.7503 13.3864 69.765 12.4019ZM7.47506 52.7213C0.3195 45.5657 0.3195 33.9228 7.47506 26.7671C14.7218 19.5204 26.3526 19.6906 33.4292 26.7671C40.0181 33.3561 40.6319 43.8249 34.8569 51.1186C33.9704 52.2381 32.9473 53.2616 31.8265 54.1489C24.5794 59.8868 14.0849 59.3311 7.47506 52.7213ZM34.0442 55.0394C34.6406 54.5085 35.2094 53.9408 35.7509 53.3323L37.4877 55.069L35.7767 56.78L34.0401 55.0433C34.0415 55.0419 34.0428 55.0405 34.0442 55.0394ZM46.0962 69.1183L36.5078 59.5299C36.3704 59.3925 36.3701 59.1694 36.5078 59.0316L36.5217 59.0176C36.522 59.0174 36.5223 59.0172 36.5224 59.0169L39.7395 55.7999C39.8768 55.6625 40.1005 55.6625 40.2379 55.7999L49.8263 65.3884C50.8545 66.4168 50.8545 68.0899 49.8263 69.1183C48.7953 70.1491 47.1271 70.1491 46.0962 69.1183ZM57.981 11.7859V3.60056L67.6928 13.3124H59.5076C58.6657 13.3124 57.981 12.6276 57.981 11.7859Z" fill="#474654"/>
<path d="M43.9959 6.84326H23.0727C21.822 6.84326 20.8044 7.86082 20.8044 9.11154V13.1535C20.8044 14.4042 21.822 15.4218 23.0727 15.4218H43.9959C45.2466 15.4218 46.2642 14.4042 46.2642 13.1535V9.11154C46.264 7.86082 45.2465 6.84326 43.9959 6.84326ZM44.1548 13.1534C44.1548 13.241 44.0835 13.3124 43.9958 13.3124H23.0727C22.9851 13.3124 22.9137 13.2411 22.9137 13.1534V9.11154C22.9137 9.02393 22.985 8.9525 23.0727 8.9525H43.9959C44.0836 8.9525 44.1549 9.02379 44.1549 9.11154V13.1534H44.1548Z" fill="#474654"/>
<path d="M31.9467 51.239C38.285 44.9009 38.285 34.5879 31.9467 28.2498C25.6085 21.9115 15.2957 21.9115 8.9575 28.2498C6.4915 30.7159 4.91003 33.8363 4.38409 37.2737C4.29606 37.8494 4.69122 38.3876 5.26708 38.4756C5.84308 38.5641 6.38097 38.1685 6.469 37.5926C6.92659 34.6024 8.30275 31.8873 10.4488 29.7411C15.9646 24.2254 24.9394 24.2254 30.4553 29.7411C35.7475 35.0334 35.961 43.5097 31.0975 49.06C30.6343 48.1174 29.8464 47.3499 28.8159 46.8962C27.5665 46.3463 25.4127 45.9967 24.0879 45.822L24.0823 44.4903C25.3625 43.5477 26.2713 42.1251 26.5324 40.4792C26.7575 40.3857 26.9641 40.2475 27.141 40.0693C27.4941 39.7138 27.6866 39.2423 27.6834 38.7415C27.674 37.3439 27.6753 35.0273 27.6753 33.6779C27.6753 32.4017 26.7454 31.3385 25.5278 31.1299C25.294 29.9433 24.2457 29.0456 22.9915 29.0456H17.9004C15.2759 29.0456 13.1407 31.1807 13.1407 33.8052V38.7612C13.1407 39.5306 13.6102 40.1924 14.2778 40.4752C14.533 42.0708 15.3966 43.4574 16.6159 44.4003L16.6221 45.8534C15.2988 46.0391 13.1481 46.4069 11.9032 46.9674C10.9565 47.3939 10.2167 48.1171 9.76131 49.0077C8.07522 47.0668 6.9588 44.727 6.51611 42.1825C6.41627 41.6087 5.87008 41.2244 5.29633 41.3242C4.72244 41.4241 4.33825 41.9703 4.43809 42.544C5.01353 45.8507 6.5763 48.8573 8.95764 51.2387C15.3236 57.6051 25.6366 57.5494 31.9467 51.239ZM17.9004 31.155H22.9915C23.2539 31.155 23.4673 31.3684 23.4673 31.6308C23.4673 32.4974 24.1723 33.2023 25.0388 33.2023H25.0904C25.3528 33.2023 25.5663 33.4158 25.5663 33.6782V34.2442L24.2915 34.1247C23.0428 34.0078 21.7656 34.304 20.6958 34.9591C20.1089 35.3184 19.435 35.5084 18.747 35.5084H15.25V33.8056C15.2499 32.3439 16.4389 31.155 17.9004 31.155ZM15.2499 38.5361V37.6174H18.7468C19.824 37.6174 20.8787 37.32 21.7973 36.7575C22.4807 36.3388 23.2966 36.1495 24.0944 36.2243L25.5667 36.3624C25.5676 37.012 25.5693 37.869 25.5729 38.5321C24.9858 38.6352 24.5289 39.1301 24.493 39.7432C24.3675 41.8995 22.5731 43.5886 20.408 43.5886C18.2475 43.5886 16.4504 41.901 16.3167 39.7463C16.279 39.1391 15.8291 38.6473 15.2499 38.5361ZM20.408 45.6978C20.9496 45.6978 21.4754 45.6267 21.9774 45.4955L21.9799 46.0836C21.9811 46.3564 22.0436 46.6167 22.1545 46.8507C21.6301 47.2045 21.0089 47.3997 20.3577 47.4016C20.3545 47.4016 20.3512 47.4016 20.348 47.4016C19.7028 47.4016 19.0863 47.2117 18.5637 46.8653C18.6726 46.6303 18.7336 46.3699 18.7325 46.0971L18.7298 45.4665C19.2645 45.6171 19.8275 45.6978 20.408 45.6978ZM11.4127 50.6257C11.5658 49.8541 12.0584 49.2111 12.7691 48.8907C13.4866 48.5677 14.8685 48.2433 16.6089 47.9862C17.6031 48.962 18.9344 49.5107 20.3476 49.5107H20.3636C21.7873 49.5065 23.1257 48.946 24.1188 47.9546C25.8615 48.197 27.2461 48.5096 27.9662 48.8267C28.7733 49.182 29.295 49.8586 29.4228 50.6833C24.2038 54.9698 16.6106 54.9503 11.4127 50.6257Z" fill="#474654"/>
</svg>
